<svg width="477" height="2507" viewBox="0 0 477 2507" fill="none" xmlns="http://www.w3.org/2000/svg">
<path opacity="0.05" fill-rule="evenodd" clip-rule="evenodd" d="M427.902 4.06787C427.501 5.75657 426.574 7.13927 425.841 7.13927C425.108 7.13927 424.51 5.75657 424.51 4.06787C424.51 2.37549 425.437 0.992882 426.57 0.992882C427.704 0.992882 428.302 2.37549 427.902 4.06787ZM414.514 3.22723C416.227 6.05524 416.246 7.51534 414.63 12.5888C411.954 20.988 407.744 26.3565 406.016 23.5727C405.061 22.0352 405.191 19.2035 406.398 15.3209C407.776 10.889 407.793 10.1037 406.467 12.1796C405.494 13.7023 404.698 13.2894 404.698 11.2615C404.698 5.75296 407.203 2.78113 408.222 7.08031C409.616 12.9576 412.17 11.4606 411.262 5.29571C410.342 -0.957628 411.521 -1.70613 414.514 3.22723ZM443.613 7.13927C445.92 9.72393 446.002 10.3544 444.051 10.5683C442.735 10.7084 441.264 9.16718 440.783 7.13927C439.777 2.89909 439.827 2.89909 443.613 7.13927ZM399.038 5.5427C399.038 6.68939 397.384 13.282 395.362 20.1917C391.988 31.7139 391.497 32.2632 389.417 26.8432C387.337 21.4231 387.473 20.2138 391.05 12.1943C394.627 4.17484 399.038 0.502417 399.038 5.5427ZM380.642 14.296C380.642 16.2059 380.005 18.7905 379.227 20.0442C378.448 21.2978 377.812 19.7344 377.812 16.5745C377.812 13.4147 378.448 10.8264 379.227 10.8264C380.005 10.8264 380.642 12.3861 380.642 14.296ZM471.547 18.7905C469.488 24.1553 455.642 27.3004 455.642 22.4002C455.642 20.0884 458.028 17.9905 460.948 17.7287C463.866 17.4706 467.729 16.8622 469.534 16.3792C471.458 15.8593 472.289 16.8585 471.547 18.7905ZM450.618 28.7973C449.88 30.5671 442.906 34.6193 435.123 37.7939C417.325 45.0612 371.372 71.2692 360.123 80.5644C352.791 86.626 352.259 87.6289 356.232 87.9202C358.762 88.1045 360.831 89.7601 360.831 91.5962C360.831 93.4361 362.097 94.0776 363.644 93.0231C367.374 90.4827 375.272 94.5164 378.461 100.593C380.847 105.139 380.527 107.215 373.66 131.815C367.104 155.306 365.517 158.779 359.082 163.76C355.109 166.832 351.652 168.808 351.4 168.152C351.148 167.495 353.526 157.961 356.684 146.966C361.143 131.439 363.277 126.97 366.228 126.97C373.61 126.97 370.817 119.611 359.877 110.242C343.48 96.1941 344.053 97.0679 348.095 92.2783C363.157 74.429 308.86 119.124 280.878 147.607C255.441 173.502 220 218.33 197.1 253.571C113.143 382.782 58.8638 552.813 38.3167 750.97C26.4016 865.871 26.3322 990.223 38.1129 1115.33C60.6341 1354.5 130.926 1608.23 232.765 1817.95C298.248 1952.8 374.049 2071.44 457.224 2169.27C468.6 2182.65 478.266 2193.6 478.705 2193.6C479.142 2193.6 483.525 2198.42 488.444 2204.32C500.652 2218.96 526.327 2244.89 556.821 2273.38C587.383 2301.94 589.248 2303.91 588.24 2306.53C587.315 2308.95 574.466 2299.64 562.481 2287.87C557.812 2283.28 549.215 2275.25 543.378 2270.02C444.866 2181.72 332.607 2027.65 252.576 1870.91C122.077 1615.33 43.6982 1324.93 27.3751 1036.54C23.86 974.442 24.1501 871.697 28.0048 813.466C43.2808 582.723 104.229 380.242 203.048 231.939C240.167 176.23 285.719 126.804 336.774 86.8361C349.367 76.9768 354.096 73.7912 384.18 54.9021C418.555 33.3178 454.65 19.1334 450.618 28.7973ZM353.867 35.8287C353.935 39.678 354.259 40.3564 354.692 37.5579C355.085 35.0249 355.977 32.949 356.673 32.949C357.369 32.949 357.215 37.097 356.328 42.1668C354.54 52.3875 352.34 54.4228 352.34 45.8539C352.34 42.8121 351.703 40.3233 350.925 40.3233C348.739 40.3233 349.254 33.9962 351.632 31.6143C352.994 30.2538 353.795 31.7655 353.867 35.8287ZM339.604 42.2185C339.604 45.2898 338.172 53.56 336.42 60.5987C334.027 70.222 331.491 74.7424 326.212 78.8093C322.349 81.7885 318.949 83.6026 318.658 82.8431C317.659 80.24 325.748 47.5795 328.746 42.1041C332.744 34.811 339.604 34.8811 339.604 42.2185ZM452.812 44.0104C452.812 46.0383 451.818 47.6975 450.605 47.6975C449.393 47.6975 448.793 46.0383 449.274 44.0104C449.755 41.9825 450.747 40.3233 451.48 40.3233C452.213 40.3233 452.812 41.9825 452.812 44.0104ZM507.798 47.3546C509.221 49.6591 509.288 51.1523 508.057 53.136C506.115 56.2627 504.658 53.4936 505.377 48.0478C505.671 45.8134 506.67 45.5295 507.798 47.3546ZM432.668 53.2171C435.209 56.0967 437.666 61.008 438.126 64.1346C438.587 67.2613 440.169 69.8201 441.642 69.8201C443.115 69.8201 444.321 71.4793 444.321 73.5072C444.321 75.5352 443.684 77.1944 442.906 77.1944C442.128 77.1944 441.491 78.9531 441.491 81.099C441.491 83.2449 442.128 83.9786 442.906 82.725C443.684 81.4714 444.321 82.1056 444.321 84.1335C444.321 91.9096 441.001 92.6654 438.821 85.3871C437.565 81.1948 433.974 76.0145 430.838 73.8723C427.704 71.7301 422.609 66.535 419.517 62.3243L413.897 54.6698L418.566 56.6608C421.135 57.7522 422.889 57.1881 422.465 55.4035C422.042 53.619 422.7 51.1523 423.927 49.9282C426.883 46.9712 427.286 47.1223 432.668 53.2171ZM319.793 50.7541C319.793 52.4355 317.404 62.6598 314.486 73.4741C310.578 87.957 307.694 94.4648 303.543 98.1777C294.473 106.282 293.918 103.262 299.952 78.6102C304.818 58.722 306.221 55.5658 311.843 51.8787C319.459 46.8826 319.793 46.8347 319.793 50.7541ZM350.925 54.6403C350.925 56.4322 349.81 58.733 348.448 59.7543C347.087 60.7756 344.783 62.8773 343.332 64.4296C340.99 66.9294 340.875 66.3506 342.32 59.3193C343.915 51.5542 350.925 47.7454 350.925 54.6403ZM466.922 58.615C470.381 64.3153 467.929 65.9118 464.13 60.4328C462.08 57.4757 461.486 55.3003 462.717 55.2597C463.885 55.2192 465.777 56.7272 466.922 58.615ZM413.189 69.5583C416.691 73.3376 421.614 78.448 424.129 80.9184L428.7 85.4055L422.34 104.8C415.973 124.22 407.42 135.167 401.141 131.933C399.021 130.846 399.371 128.231 403.528 114.065C407.49 100.567 409.109 97.6947 412.208 98.6607C416.427 99.9733 417.464 92.9346 413.543 89.6162C405.774 83.0421 393.378 68.2642 393.378 65.58C393.378 59.8871 406.706 62.5639 413.189 69.5583ZM297.151 66.4022C297.151 68.5038 294.579 80.0925 291.436 92.1567C287.554 107.049 284.077 115.876 280.605 119.655C277.792 122.719 275.21 124.493 274.868 123.6C274.525 122.708 276.374 111.518 278.976 98.7271C283.172 78.1124 284.469 74.7461 290.43 69.0274C294.423 65.1928 297.151 64.1272 297.151 66.4022ZM464.397 72.3385C463.377 73.4041 462.155 73.2713 461.686 72.0472C461.216 70.8231 462.051 69.9529 463.542 70.1115C465.191 70.2884 465.526 71.1623 464.397 72.3385ZM395.147 82.2826C399.622 86.5006 403.283 92.0571 403.283 94.6344C403.283 97.208 402.806 99.3208 402.222 99.3244C401.638 99.3281 399.419 106.514 397.29 115.297C391.866 137.663 389.165 143.079 381.596 146.766C377.957 148.536 374.981 149.311 374.981 148.488C374.981 145.697 379.733 127.018 382.565 118.674C384.113 114.11 386.861 110.378 388.671 110.378C394.47 110.378 392.22 104.39 382.411 93.72C371.033 81.3423 371.014 81.3055 373.405 77.4525C376.704 72.1431 386.754 74.3737 395.147 82.2826ZM474.088 86.567C475.246 90.2061 475.409 93.5319 474.539 95.7995C472.718 100.545 467.611 90.7851 468.952 85.1291C470.325 79.344 471.931 79.7974 474.088 86.567ZM460.933 85.6194C460.217 91.2386 452.81 92.3005 452.814 86.7846C452.816 84.5502 454.772 82.3674 457.162 81.9323C460.04 81.4051 461.312 82.6476 460.933 85.6194ZM277.34 82.4928C277.34 83.8165 275.018 95.416 272.179 108.273C268.551 124.714 265.559 133.467 262.098 137.766C259.392 141.129 256.908 143.172 256.576 142.312C256.247 141.45 258.045 129.809 260.574 116.447C263.745 99.6857 266.292 91.0874 268.78 88.735C270.764 86.8583 273.502 84.1445 274.864 82.7066C276.225 81.2686 277.34 81.1728 277.34 82.4928ZM438.661 95.5635C440.488 98.5833 440.369 100.158 437.813 106.831C434.94 114.335 424.51 123.228 424.51 118.177C424.51 114.659 433.926 91.9318 435.355 91.9982C436.006 92.0313 437.493 93.6352 438.661 95.5635ZM451.397 103.004C451.397 105.032 450.812 106.691 450.097 106.691C449.383 106.691 447.631 107.831 446.206 109.224C443.923 111.455 443.846 111.013 445.555 105.537C447.679 98.7382 451.397 97.1232 451.397 103.004ZM257.529 103.074C257.529 105.18 255.6 116.86 253.241 129.031C250.09 145.299 247.659 152.769 244.061 157.241C241.37 160.582 238.749 162.23 238.238 160.899C236.983 157.629 241.835 125.127 243.579 125.127C244.339 125.127 244.606 123.637 244.174 121.819C243.743 119.998 246.572 114.176 250.459 108.878C254.348 103.579 257.529 100.969 257.529 103.074ZM348.448 111.171C353.701 115.393 357.99 120.676 357.979 122.911C357.968 125.145 354.238 138.666 349.69 152.961C343.182 173.421 340.145 179.947 335.423 183.634C332.123 186.211 329.14 187.583 328.794 186.679C328.449 185.78 330.262 174.877 332.823 162.451L337.482 139.857L343.849 141.925C354.171 145.277 347.636 135.255 334.421 127.464C318.366 118 318.229 117.712 326.161 110.242C335.151 101.773 336.85 101.843 348.448 111.171ZM478.991 114.065C479.519 116.292 477.73 117.649 474.475 117.494C470.171 117.288 469.655 116.595 471.915 114.065C475.804 109.711 477.958 109.711 478.991 114.065ZM531.349 117.753C530.868 119.78 529.876 121.44 529.143 121.44C528.41 121.44 527.812 119.78 527.812 117.753C527.812 115.725 528.805 114.065 530.018 114.065C531.23 114.065 531.83 115.725 531.349 117.753ZM520.382 122.715C524.51 133.345 524.428 139.875 520.169 139.875C517.786 139.875 515.898 136.022 513.849 126.97L510.925 114.065L514.062 114.287C515.788 114.412 518.63 118.202 520.382 122.715ZM464.84 121.336C463.283 123.036 455.323 128.08 447.151 132.549C438.979 137.014 423.378 146.247 412.481 153.06C401.585 159.87 390.975 166.194 388.903 167.108C386.83 168.019 383.965 170.327 382.535 172.237C378.715 177.336 370.736 180.725 370.736 177.251C370.736 173.055 408.918 145.454 430.17 134.286C439.899 129.172 450.932 123.361 454.688 121.37C458.445 119.379 462.903 117.863 464.594 118.003C467.564 118.243 467.572 118.357 464.84 121.336ZM507.754 133.659C511.371 143.695 511.621 147.249 508.708 147.249C507.54 147.249 506.585 144.938 506.585 142.113C506.585 139.289 505.63 136.022 504.463 134.853C502.234 132.626 501.498 125.127 503.509 125.127C504.151 125.127 506.062 128.969 507.754 133.659ZM323.684 131.236C328.548 134.241 332.513 138.658 332.493 141.051C332.475 143.448 329.768 156.913 326.479 170.98C321.371 192.833 319.516 197.601 313.736 203.747C310.017 207.703 306.604 209.982 306.154 208.81C305.704 207.637 307.699 196.539 310.588 184.15C315.124 164.689 316.349 161.777 319.585 162.735C321.645 163.344 323.649 162.289 324.038 160.39C324.84 156.475 320.986 153.754 305.288 147.139C299.257 144.598 294.321 141.251 294.321 139.702C294.321 135.665 306.879 125.064 311.2 125.451C313.203 125.632 318.819 128.235 323.684 131.236ZM236.302 128.224C236.302 129.717 235.095 140.004 233.621 151.077C231.403 167.735 229.922 172.72 225.047 179.91C221.806 184.688 218.759 187.572 218.277 186.314C217.029 183.066 223.65 142.607 226.305 137.257C229.322 131.181 236.302 124.872 236.302 128.224ZM457.665 139.459C458.091 141.254 457.52 144.716 456.395 147.15C454.776 150.653 453.671 150.258 451.104 145.273C449.07 141.321 448.766 139.765 450.29 141.103C451.627 142.279 453.097 141.652 453.557 139.713C454.606 135.292 456.647 135.163 457.665 139.459ZM480.83 144.3C481.764 146.733 482.529 150.881 482.529 153.518C482.529 160.084 477.617 159.572 475.453 152.78C473.979 148.153 474.195 147.249 476.779 147.249C478.476 147.249 479.472 145.59 478.991 143.562C477.798 138.533 478.766 138.92 480.83 144.3ZM464.486 148.695C467.437 154.528 467.776 165.685 465.005 165.685C463.929 165.685 462.654 162.78 462.174 159.233C461.693 155.686 460.93 150.708 460.476 148.171C459.41 142.213 461.338 142.467 464.486 148.695ZM446.952 154.672C454.633 169.169 454.95 171.887 449.285 174.656C445.452 176.529 443.427 175.246 440.1 168.834C437.751 164.31 435.831 158.436 435.831 155.774C435.831 153.112 434.451 150.937 432.764 150.937C428.031 150.937 430.762 146.715 436.375 145.354C440.113 144.451 442.783 146.803 446.952 154.672ZM297.859 153.761C304.864 156.618 310.81 159.513 311.072 160.184C311.333 160.859 308.233 174.877 304.18 191.336C298.674 213.702 295.561 222.625 291.856 226.659C289.131 229.623 286.332 232.053 285.637 232.053C284.943 232.053 286.303 222.098 288.661 209.93C292.687 189.153 293.251 187.808 297.962 187.808C307.763 187.808 301.183 181.149 285.136 174.829C276.178 171.3 268.849 167.134 268.849 165.567C268.849 162.846 274.002 157.057 281.585 151.261C283.531 149.775 290.854 150.9 297.859 153.761ZM217.906 150.594C217.906 152.434 216.091 164.483 213.87 177.369C210.773 195.363 208.649 202.471 204.729 207.972C201.92 211.914 199.269 214.218 198.838 213.098C198.408 211.973 199.428 201.107 201.108 188.947C203.679 170.327 205.143 165.29 210.383 157.042C217.231 146.269 217.906 145.686 217.906 150.594ZM427.142 160.184C429.197 164.634 432.31 170.242 434.062 172.643C438.001 178.04 438.131 182.657 434.415 185.19C432.505 186.491 431.585 185.3 431.585 181.532C431.585 177.58 430.654 176.555 428.397 178.033C426.107 179.53 423.634 176.673 419.622 167.897L414.037 155.678L418.721 153.886C422.169 152.566 424.392 154.233 427.142 160.184ZM445.736 159.162C447.682 161.187 448.582 163.528 447.737 164.369C445.648 166.445 439.259 160.04 440.895 157.507C441.613 156.397 443.79 157.142 445.736 159.162ZM415.091 175.036C422.865 190.507 422.34 197.387 413.679 193.515C408.375 191.148 397.549 172.023 399.15 167.849C399.591 166.703 401.82 164.789 404.103 163.598C407.435 161.861 409.602 164.118 415.091 175.036ZM398.315 186.034C401.42 193.095 404.445 198.869 405.037 198.869C407.781 198.869 405.709 205.587 402.467 207.202C399.886 208.485 396.573 205.218 391.146 196.041C383.008 182.277 382.119 178.889 385.711 175.297C390.013 170.994 392.713 173.295 398.315 186.034ZM198.095 176.514C198.095 181.606 192.306 222.013 190.912 226.648C190.281 228.742 187.114 234.343 183.873 239.088L177.982 247.716L179.008 238.963C179.571 234.147 180.831 227.721 181.804 224.679C182.778 221.637 183.323 217.364 183.016 215.181C182.708 212.994 184.064 206.689 186.031 201.162C187.997 195.635 189.604 189.585 189.604 187.712C189.604 185.842 191.515 181.735 193.85 178.59C196.184 175.445 198.095 174.508 198.095 176.514ZM367.906 180.433C367.906 182.461 367.231 184.121 366.407 184.121C365.584 184.121 365.302 182.461 365.783 180.433C366.265 178.406 366.938 176.746 367.282 176.746C367.626 176.746 367.906 178.406 367.906 180.433ZM279.46 181.178C284.128 183.129 288.175 185.312 288.453 186.034C288.73 186.757 286.276 199.997 283.002 215.454C277.462 241.606 276.422 244.364 268.041 255.131C263.087 261.495 258.637 265.665 258.15 264.396C257.662 263.128 259.392 251.598 261.995 238.775C266.314 217.496 267.126 215.461 271.302 215.461C286.148 215.461 264.202 201.745 245.147 199.112C241.35 198.589 243.698 192.044 250.361 184.574C257.878 176.149 265.326 175.279 279.46 181.178ZM384.598 197.132C392.605 210.966 392.957 215.339 386.366 219.111C383.076 220.995 380.551 218.709 374.171 208.076C365.758 194.054 365.489 189.386 372.903 186.064C376.101 184.633 378.894 187.277 384.598 197.132ZM359.056 189.972C358.599 191.167 356.104 193.464 353.513 195.079C350.922 196.697 347.529 199.068 345.972 200.348C344.415 201.631 345.689 199.374 348.802 195.34C354.015 188.582 360.992 184.932 359.056 189.972ZM369.34 212.541L377.104 226.213L371.444 230.449C368.331 232.779 364.828 233.679 363.661 232.447C359.568 228.13 349.531 211.748 349.521 209.37C349.508 206.782 357.403 198.869 360 198.869C360.866 198.869 365.07 205.023 369.34 212.541ZM252.112 209.573C256.527 210.804 260.547 212.88 261.045 214.178C261.545 215.479 259.344 230.058 256.158 246.577C251.396 271.254 249.184 278.559 243.763 287.518C240.133 293.513 236.38 298.421 235.424 298.421C233.888 298.421 235.694 283.396 241.514 247.723C241.927 245.19 244.426 243.114 247.067 243.114C249.708 243.114 251.868 241.455 251.868 239.427C251.868 237.373 247.639 235.563 242.317 235.338C237.064 235.121 228.944 233.838 224.274 232.488L215.784 230.036L224.587 218.138C233.689 205.841 236.094 205.093 252.112 209.573ZM331.114 215.192C329.168 218.241 325.347 222.68 322.623 225.062C316.241 230.637 293.875 256.701 275.414 280.078C267.447 290.166 260.164 298.421 259.23 298.421C258.294 298.421 257.529 299.815 257.529 301.522C257.529 303.229 254.185 309.316 250.099 315.053C229.79 343.573 193.763 411.777 173.247 460.551C168.532 471.759 163.026 484.506 161.012 488.871C158.999 493.237 156.696 499.859 155.895 503.59C155.094 507.318 153.981 509.172 153.419 507.709C152.124 504.339 174.495 444.272 187.244 416.895C212.07 363.572 240.161 316.761 272.387 275.012C290.149 252.004 296.164 244.833 309.482 230.796C317.997 221.825 327.143 213.396 329.807 212.069C334.636 209.661 334.64 209.672 331.114 215.192ZM350.455 223.993C353.7 229.439 356.865 235.231 357.49 236.861C359.018 240.85 355.261 246.676 351.116 246.746C347.673 246.801 333.944 229.166 333.944 224.686C333.944 221.563 340.549 213.533 342.855 213.853C343.791 213.982 347.212 218.547 350.455 223.993ZM175.518 227.396C174.065 248.007 171.05 261.236 165.901 269.573L161.302 277.021V264.057C161.302 247.469 162.507 239.427 164.992 239.427C166.076 239.427 166.963 237.768 166.963 235.74C166.963 233.712 167.996 232.053 169.258 232.053C171.139 232.053 171.236 231.054 169.793 226.522C168.153 221.371 168.822 219.332 171.71 220.686C172.377 220.995 173.726 219.513 174.708 217.386C176.118 214.336 176.29 216.445 175.518 227.396ZM335.693 240.493C340.157 247.004 343.82 253.309 343.83 254.507C343.841 255.702 341.373 258.81 338.348 261.414C333.107 265.919 332.468 265.554 324.904 253.766C320.536 246.96 316.963 240.452 316.963 239.306C316.963 237.414 325.53 228.167 326.969 228.51C327.303 228.591 331.228 233.981 335.693 240.493ZM227.458 241.993C233.101 242.786 237.676 244.608 237.627 246.042C237.577 247.473 235.167 262.674 232.272 279.823C227.849 306.024 225.933 313.015 220.274 323.604C216.57 330.536 213.2 335.322 212.785 334.238C211.973 332.121 216.113 289.745 218.175 279.064C218.86 275.517 220.991 272.611 222.909 272.611C224.827 272.611 226.397 270.952 226.397 268.924C226.397 264.212 222.511 264.275 208.419 269.219C202.176 271.405 195.234 272.652 192.992 271.984C189.159 270.838 189.458 269.927 198.106 256.502C207.875 241.333 211.182 239.7 227.458 241.993ZM319.33 256.816C323.866 263.902 327.833 270.333 328.148 271.107C328.46 271.881 326.232 275.222 323.195 278.529C317.704 284.51 317.615 284.469 308.827 272.125C303.965 265.296 299.984 258.715 299.983 257.501C299.983 256.288 302.481 252.738 305.533 249.611C311.028 243.988 311.172 244.066 319.33 256.816ZM157.194 245.88C157.647 255.013 156.596 279.03 155.512 284.307C154.809 287.732 152.225 294.258 149.771 298.812L145.309 307.089L146.092 281.696C146.716 261.454 147.507 254.968 150 249.711C153.205 242.945 156.95 240.954 157.194 245.88ZM303.876 277.135C307.96 283.68 311.302 290.155 311.302 291.526C311.302 292.894 309.434 295.711 307.15 297.783C303.627 300.984 301.697 299.848 294.415 290.295C285.19 278.19 284.309 274.993 288.567 269.053C292.973 262.91 295.992 264.503 303.876 277.135ZM142.162 284.594C140.785 316.267 140.332 319.161 135.142 329.474L130.17 339.355L130.2 312.436L130.231 285.516L135.733 275.377C138.76 269.802 141.634 265.237 142.119 265.237C142.606 265.237 142.625 273.95 142.162 284.594ZM213.008 286.438C212.482 292.013 210.416 308.631 208.419 323.364C205.105 347.814 203.993 351.777 195.662 368.837C190.643 379.113 186.3 386.904 186.01 386.148C184.976 383.453 192.403 326.557 194.171 323.633C195.161 321.996 197.686 320.632 199.78 320.599C201.875 320.57 203.982 318.884 204.463 316.857C205.806 311.197 187.22 313.981 165.548 322.686L160.595 324.673L164.84 315.046C174.061 294.129 179.911 288.012 196.374 282.065C205.158 278.894 212.708 276.298 213.156 276.298C213.603 276.298 213.536 280.863 213.008 286.438ZM285.013 291.939C291.642 301.883 292.428 306.186 288.717 312.222C286.327 316.108 286.061 315.891 286.831 310.666C287.499 306.131 287.223 305.397 285.749 307.772C283.124 311.997 279.059 311.374 273.449 305.884C268.489 301.035 267.843 297.813 270.627 291.795C274.45 283.525 279.437 283.573 285.013 291.939ZM125.683 324.282C125.181 347.493 124.66 351.349 120.617 361.887C118.138 368.343 115.82 372.875 115.466 371.953C115.112 371.028 114.374 359.918 113.823 347.264L112.824 324.253L118.237 311.337C121.213 304.232 124.233 298.421 124.946 298.421C125.663 298.421 125.993 309.991 125.683 324.282ZM267.924 311.691C271.569 316.916 271.859 318.744 270.982 330.986C270.449 338.422 269.877 344.871 269.711 345.317C269.4 346.151 248.652 327.888 247.916 326.133C247.193 324.404 257.523 309.619 260.774 307.731C262.491 306.732 265.709 308.516 267.924 311.691ZM276.509 325.385C277.981 328.187 278.58 331.454 277.841 332.641C275.974 335.65 272.632 329.688 273.293 324.529C273.681 321.495 274.595 321.738 276.509 325.385ZM187.336 334.086C186.807 339.82 184.496 358.178 182.201 374.888C178.668 400.595 176.912 407.877 170.772 422.26C166.572 432.097 163.282 437.414 162.958 434.881C162.453 430.932 164.713 394.024 166.376 379.069C166.779 375.445 169.233 372.16 172.582 370.766C182.075 366.81 181.347 359.727 171.761 362.768C160.446 366.36 140.953 375.205 138.13 378.026C133.705 382.45 136.033 373.87 143.718 357.415C151.763 340.192 160.629 332.671 180.505 326.2L188.298 323.667L187.336 334.086ZM109.391 333.998C109.923 335.384 110.359 348.378 110.359 362.872C110.359 387.314 110.053 389.983 106.128 399.78C103.802 405.587 101.542 409.414 101.107 408.282C100.673 407.146 99.9637 394.824 99.5336 380.894C98.7581 355.811 98.7963 355.457 103.586 343.522C106.247 336.896 108.858 332.612 109.391 333.998ZM251.585 341.457C254.59 345.314 255.978 349.333 255.478 352.725C254.867 356.873 255.607 357.481 258.945 355.571C264.488 352.397 264.487 358.985 258.944 365.379C256.609 368.074 254.699 371.529 254.699 373.063C254.699 374.597 254.002 375.85 253.152 375.85C250.446 375.85 230.642 356.563 230.642 353.927C230.642 349.889 241.378 335.285 244.278 335.377C245.728 335.421 249.017 338.157 251.585 341.457ZM228.873 367.23C229.845 368.255 230.642 371.455 230.642 374.346C230.642 378.693 231.144 378.8 233.558 374.958C236.015 371.05 236.762 371.326 238.298 376.713C239.299 380.231 240.507 382.1 240.981 380.868C241.453 379.637 242.983 379.784 244.378 381.2C246.703 383.556 246.635 384.368 243.575 390.872C240.134 398.187 234.045 400.819 235.585 394.326C236.06 392.324 235.564 391.568 234.48 392.652C233.397 393.736 231.699 392.074 230.707 388.958C229.606 385.503 227.676 384.098 225.758 385.352C222.933 387.199 222.678 386.263 223.251 376.097C223.865 365.202 225.096 363.259 228.873 367.23ZM95.2968 379.655C95.7978 386.182 96.2081 399.448 96.2081 409.138C96.2081 424.771 95.5105 428.764 90.0171 444.574L83.826 462.39L82.7789 431.577L81.7318 400.76L88.0587 384.275L94.3869 367.79L95.2968 379.655ZM161.925 389.157C158.701 435.596 155.621 457.553 149.806 475.52C146.546 485.593 143.302 493.838 142.598 493.838C141.894 493.838 141.675 486.371 142.112 477.246C144.739 422.374 144.062 427.142 150.092 420.969C153.144 417.846 155.642 413.75 155.642 411.87C155.642 407.161 149.375 411.106 129.739 428.174C120.551 436.164 112.387 442.137 111.596 441.448C110.806 440.762 114.184 430.15 119.103 417.869C127.294 397.42 129.061 394.824 140.076 387.085C146.692 382.435 154.538 377.771 157.513 376.72L162.921 374.807L161.925 389.157ZM224.628 400.414C226.783 402.681 226.994 412.721 224.887 412.721C224.019 412.721 223.759 415.866 224.274 420.096C224.969 425.8 224.529 427.47 222.33 427.47C219.11 427.47 217.039 421.464 219.515 419.314C220.719 418.267 220.735 415.918 219.575 410.266C217.373 399.547 219.625 395.156 224.628 400.414ZM208.513 407.191C209.1 411.188 208.357 412.721 205.834 412.721C201.917 412.721 201.15 407.327 204.579 403.898C207.59 400.886 207.583 400.882 208.513 407.191ZM78.4756 421.08C78.7827 423.58 79.319 436.411 79.6671 449.592C80.2656 472.22 80.0209 474.643 75.2648 492.986C69.0992 516.772 67.9572 513.781 67.9275 473.787C67.9105 449.434 68.4412 442.476 71.0902 432.366C74.6478 418.787 77.6364 414.222 78.4756 421.08ZM204.463 423.724C206.019 425.446 208.567 428.001 210.123 429.402L212.953 431.95L210.123 435.025C207.378 438.008 207.389 438.177 210.477 440.589C214.308 443.583 214.462 446.562 211.184 454.29C209.103 459.197 207.86 459.441 203.401 455.802C200.482 453.423 198.095 450.124 198.095 448.472C198.095 446.82 197.493 446.44 196.758 447.624C196.022 448.807 193.315 447.384 190.743 444.456C186.509 439.637 186.391 439.103 189.487 438.834C191.367 438.668 192.48 437.421 191.959 436.064C191.44 434.708 192.068 430.56 193.359 426.847C195.845 419.69 199.806 418.577 204.463 423.724ZM139.63 444.984C139.186 452.59 138.382 470.926 137.844 485.73C137.144 504.995 135.941 516.005 133.616 524.445C131.829 530.934 128.571 543.289 126.376 551.902C124.183 560.519 121.91 567.569 121.326 567.573C120.742 567.576 120.265 550.903 120.265 530.521V493.462L125.571 487.374C135.906 475.52 125.73 478.44 109.844 491.887C101.389 499.044 93.5336 504.899 92.3889 504.899C90.1884 504.899 100.37 468.765 104.137 463.205C107.846 457.73 136.201 431.157 138.334 431.157C139.966 431.157 140.256 434.262 139.63 444.984ZM217.184 438.59C216.695 440.651 215.703 441.385 214.978 440.216C213.016 437.056 213.381 434.844 215.867 434.844C217.08 434.844 217.673 436.529 217.184 438.59ZM191.727 457.251C196.397 461.325 201.082 465.436 202.141 466.384C203.51 467.608 202.831 471.387 199.776 479.528C197.418 485.807 194.792 489.826 193.939 488.451C193.085 487.076 190.647 485.158 188.52 484.192C186.392 483.223 182.216 480.752 179.24 478.699C174.43 475.388 174.037 474.278 175.7 468.736C177.352 463.227 182.735 449.39 183.099 449.714C183.174 449.784 187.057 453.173 191.727 457.251ZM64.0021 496.603C64.6558 531.258 64.527 533.264 60.4318 552.356C57.2436 567.211 55.8907 570.806 55.0176 566.739C53.3563 559.008 51.1501 507.849 52.1831 501.006C53.5926 491.651 61.4633 460.669 62.4312 460.661C62.9223 460.658 63.6285 476.829 64.0021 496.603ZM181.037 492.348C189.996 498.62 190.228 499.033 189.103 506.669C187.844 515.219 183.785 518.044 181.97 511.632C181.109 508.59 179.036 504.202 177.364 501.883C174.872 498.425 174.16 498.753 173.433 503.69C172.637 509.091 172.318 508.988 170.346 502.698C168.429 496.581 168.246 496.507 168.926 502.134C169.746 508.94 167.551 510.618 164.476 505.53C163.162 503.358 163.627 500.482 166.255 494.527C170.367 485.21 170.765 485.151 181.037 492.348ZM116.019 543.806C116.019 589.721 115.98 590.285 110.931 615.704C108.133 629.793 105.347 640.522 104.74 639.545C104.134 638.568 102.885 624.052 101.965 607.283C101.045 590.518 100.057 573.778 99.7714 570.087C99.4062 565.371 101.114 560.445 105.512 553.521C111.459 544.163 113.392 538.083 110.42 538.083C109.676 538.083 100.442 549.841 89.9011 564.21C78.1487 580.234 70.7577 588.434 70.7903 585.411C70.82 582.701 74.1624 567.536 78.2195 551.714L85.5949 522.94L99.7317 510.234C107.506 503.244 114.352 497.525 114.944 497.525C115.535 497.525 116.019 518.35 116.019 543.806ZM148.397 527.022C145.895 535.133 143.656 541.77 143.421 541.77C142.401 541.77 145.088 528.467 147.671 520.728C152.544 506.123 153.17 511.543 148.397 527.022ZM169.439 522.251C171.248 523.158 172.613 526.524 172.602 530.045C172.589 533.677 172.149 534.669 171.541 532.446C170.212 527.597 164.117 528.493 162.879 533.718C162.355 535.923 161.126 536.391 160.119 534.768C158.781 532.615 159.242 530.244 161.876 525.746C163.841 522.391 165.63 519.872 165.852 520.149C166.074 520.426 167.689 521.369 169.439 522.251ZM48.6907 538.518C49.3586 551.622 49.1436 558.517 48.0129 560.339C46.7959 562.296 46.7845 563.369 47.9676 564.398C48.8534 565.165 49.9643 572.016 50.4384 579.618C51.1119 590.436 50.2883 599.481 46.6473 621.235C44.0902 636.522 41.5445 647.712 40.9911 646.097C40.4379 644.486 38.8402 626.935 37.4421 607.098L34.8978 571.035L39.8054 546.501C42.504 533.01 45.3879 521.384 46.2144 520.665C47.0704 519.924 48.136 527.601 48.6907 538.518ZM179.699 530.709C179.699 532.737 179.062 534.396 178.284 534.396C177.505 534.396 176.868 532.737 176.868 530.709C176.868 528.681 177.505 527.022 178.284 527.022C179.062 527.022 179.699 528.681 179.699 530.709ZM157.057 530.314C157.057 532.125 156.113 534.551 154.959 535.705C153.764 536.9 153.219 540.247 153.695 543.474C154.284 547.471 153.65 549.144 151.548 549.144C147.689 549.144 147.776 544.993 151.841 535.038C155.325 526.513 157.057 524.942 157.057 530.314ZM161.726 540.413C163.66 545.454 162.678 549.642 159.831 548.481C158.244 547.832 156.937 545.642 156.927 543.614C156.903 539.127 160.349 536.829 161.726 540.413ZM142.199 549.144C141.718 551.172 140.687 552.832 139.909 552.832C139.131 552.832 138.887 551.172 139.368 549.144C139.85 547.117 140.88 545.457 141.658 545.457C142.436 545.457 142.68 547.117 142.199 549.144ZM156.236 562.986C156.681 564.144 159.913 564.807 163.419 564.461C170.397 563.775 170.935 565.57 167.219 577.155C165.309 583.106 161.495 586.196 150.638 590.591C142.884 593.729 136.264 595.621 135.93 594.795C135.594 593.969 137.218 586.263 139.534 577.672C143.253 563.882 144.432 561.979 149.588 561.463C152.801 561.142 155.792 561.828 156.236 562.986ZM133.842 574.416C130.848 583.206 130.17 584.01 130.17 578.77C130.17 576.816 131.604 573.255 133.354 570.862C136.521 566.529 136.524 566.548 133.842 574.416ZM97.5029 596.155C101.046 657.962 101.044 664.691 97.4676 690.682C95.6209 704.092 93.6794 715.064 93.153 715.064C92.0506 715.064 83.4681 649.611 83.4822 641.315C83.4879 638.277 85.7167 631.843 88.4351 627.02C93.269 618.444 94.8001 611.825 91.9515 611.825C91.1676 611.825 82.9062 625.42 73.5921 642.034C64.2794 658.648 56.3026 671.31 55.8653 670.174C54.787 667.361 64.1068 614.716 66.6115 609.484C68.7214 605.07 94.418 567.58 95.3322 567.58C95.6251 567.58 96.6015 580.441 97.5029 596.155ZM164.133 574.954C164.133 576.982 163.496 578.641 162.718 578.641C161.939 578.641 161.302 576.982 161.302 574.954C161.302 572.926 161.939 571.267 162.718 571.267C163.496 571.267 164.133 572.926 164.133 574.954ZM31.5992 592.457C33.2351 599.352 37.0402 667.965 36.4147 679.263C35.4482 696.688 29.1355 751.877 28.1039 751.906C27.2676 751.936 22.4379 700.486 20.3747 669.551C19.8101 661.104 20.1653 649.556 21.2521 640.976C22.7209 629.383 23.7921 626.489 26.7411 626.146C29.1412 625.866 29.5502 625.136 27.9285 624.033C26.0294 622.739 25.6657 620.044 26.3718 612.478C27.5506 599.824 30.5875 588.191 31.5992 592.457ZM159.887 601.122C159.887 608.887 152.776 630.261 150.193 630.261C148.831 630.261 147.112 631.732 146.373 633.535C145.635 635.334 143.6 637.93 141.853 639.305C139.346 641.278 138.858 640.592 139.528 636.031C139.997 632.857 139.674 630.261 138.812 630.261C137.951 630.261 137.246 632.842 137.246 635.998C137.246 641.861 124.956 658.46 123.474 654.603C122.696 652.575 127.646 625.81 131.028 613.757C132.204 609.569 136.373 606.778 144.877 604.492C151.568 602.692 157.683 600.193 158.465 598.931C159.248 597.67 159.887 598.659 159.887 601.122ZM126.529 607.216C125.424 612.791 123.258 621.504 121.717 626.574C117.504 640.423 118.098 627.481 122.438 610.837C126.604 594.865 129.481 592.317 126.529 607.216ZM149.982 642.749C149.982 650.315 142.284 684.926 139.639 689.255C125.495 712.399 113.653 729.813 112.063 729.813C109.869 729.813 110.501 723.036 115.381 694.122C118.772 674.045 122.114 667.39 133.499 658.051C136.728 655.403 141.756 650.533 144.675 647.229C147.593 643.925 149.982 641.912 149.982 642.749ZM117.435 645.009C117.435 647.037 116.76 648.696 115.936 648.696C115.112 648.696 114.831 647.037 115.312 645.009C115.793 642.981 116.467 641.322 116.81 641.322C117.154 641.322 117.435 642.981 117.435 645.009ZM79.6289 651.211C80.0067 652.87 82.6785 673.308 85.5638 696.629C90.5789 737.139 90.7332 739.893 89.0393 758.388C88.0629 769.036 86.7539 777.745 86.1284 777.745C85.5015 777.745 81.869 765.412 78.054 750.335L71.1171 722.925L76.1605 712.288C78.9341 706.44 80.5997 700.685 79.861 699.497C79.1237 698.31 71.3421 709.866 62.5699 725.174C53.7964 740.483 46.3375 752.275 45.9936 751.375C45.1672 749.222 50.853 699.685 52.5553 694.21C54.2053 688.904 73.9601 653.173 76.8299 650.304C77.9917 649.143 79.2496 649.552 79.6289 651.211ZM114.559 658.442C114.585 662.789 113.649 667.298 112.482 668.467C109.789 671.158 109.77 666.881 112.436 657.697C114.473 650.684 114.515 650.702 114.559 658.442ZM139.354 674.565C138.865 676.626 137.873 677.36 137.148 676.191C135.185 673.031 135.551 670.819 138.037 670.819C139.25 670.819 139.843 672.504 139.354 674.565ZM110.871 680.037C110.423 683.079 109.41 685.568 108.62 685.568C107.791 685.568 107.928 683.226 108.944 680.037C109.913 676.995 110.927 674.506 111.195 674.506C111.464 674.506 111.318 676.995 110.871 680.037ZM18.8549 707.255C25.4718 783.6 25.7479 789.968 23.6719 818.742L21.7078 845.957L13.8865 803.555L6.06531 761.153L9.5379 727.969C14.4242 681.279 14.345 681.88 15.5591 681.88C16.162 681.88 17.645 693.299 18.8549 707.255ZM132.176 688.761C132.785 691.331 132.901 694.428 132.435 695.644C131.168 698.944 129.787 694.092 130.472 688.746C130.95 685 131.284 685 132.176 688.761ZM108.944 689.882C108.944 691.095 106.715 708.608 103.991 728.803C86.4567 858.766 86.9605 999.544 105.469 1142.16C146.222 1456.18 269.309 1759.24 447.151 1983.43C466.173 2007.41 466.963 2008.59 466.963 2013.09C466.963 2025.48 394.722 1927.4 347.084 1850.33C195.761 1605.52 101.924 1296.43 89.1723 1000.82C84.961 903.188 89.3718 803.795 101.525 722.439C104.59 701.927 108.944 682.817 108.944 689.882ZM138.577 712.299C138.531 714.836 137.097 726.365 135.393 737.928C132.572 757.057 131.032 761.452 118.281 786.782C110.574 802.091 103.657 814.616 102.911 814.616C101.385 814.616 102.357 796.793 105.439 768.277C107.455 749.616 107.479 749.557 122.339 728.64C130.524 717.118 137.544 707.69 137.941 707.69C138.337 707.69 138.623 709.766 138.577 712.299ZM71.1723 741.726C73.0714 748.355 77.001 763.233 79.9062 774.788C85.1208 795.521 85.1761 796.133 84.1869 821.799C83.6365 836.097 82.6685 847.8 82.0359 847.8C80.7567 847.8 66.5308 804.429 65.4893 797.353C65.1242 794.879 66.5067 787.114 68.56 780.101C70.6402 772.996 71.6874 766.37 70.9247 765.143C69.7233 763.211 61.2384 785.839 44.7766 834.884C42.0568 842.989 39.528 848.796 39.16 847.789C38.7907 846.779 39.4544 829.748 40.636 809.941L42.7827 773.925L53.5756 754.314C59.5119 743.525 65.1228 733.566 66.0454 732.187C67.0261 730.716 69.153 734.676 71.1723 741.726ZM131.049 784.198C130.649 787.745 129.896 796.911 129.375 804.562C128.59 816.102 126.038 824.277 114.42 852.494C106.715 871.206 99.8081 887.046 99.0723 887.695C97.8581 888.768 98.2685 862.272 99.777 842.255C100.265 835.762 128.158 777.745 130.79 777.745C131.332 777.745 131.448 780.651 131.049 784.198ZM6.73889 790.982C7.52991 794.857 11.1412 815.228 14.7639 836.252C21.1035 873.05 21.3157 875.402 20.4129 898.933C19.8978 912.384 19.3049 923.88 19.0955 924.481C18.8875 925.086 15.9327 915.433 12.5323 903.03C9.13184 890.63 5.01672 876.033 3.38654 870.594C0.622864 861.369 0.51239 858.475 1.75201 827.521C3.28174 789.345 4.53278 780.179 6.73889 790.982ZM72.0015 836.304L82.0572 865.37V897.141C82.0572 914.618 81.4756 928.917 80.7652 928.917C79.0062 928.917 62.2459 892.178 62.2459 888.322C62.2459 886.626 63.8379 880.306 65.7836 874.281C69.6483 862.317 70.312 855.156 67.5525 855.208C66.5789 855.226 59.8501 877.655 52.5992 905.05C45.3468 932.442 38.819 953.897 38.0945 952.728C36.644 950.394 36.576 896.072 38.0025 880.347C38.4949 874.927 40.4888 865.753 42.4346 859.964C44.3804 854.172 49.046 839.94 52.803 828.336C56.5601 816.737 60.1544 807.242 60.7898 807.242C61.4266 807.242 66.4713 820.32 72.0015 836.304ZM127.34 849.143C127.34 869.097 124.298 897.208 120.961 908.074C118.998 914.467 116.908 921.358 116.317 923.386C104.997 962.186 101.481 973.162 100.371 973.162C99.6384 973.162 99.0327 967.772 99.0256 961.179C99.02 954.587 98.6081 940.384 98.1114 929.61L97.2086 910.028L111.212 875.339C118.916 856.262 125.694 840.603 126.279 840.541C126.863 840.478 127.34 844.349 127.34 849.143ZM11.195 920.307C20.2332 955.663 20.2898 956.043 20.836 985.717L21.3851 1015.56L17.4044 1004.15C15.2167 997.866 10.4082 983.763 6.72186 972.805L0.0186157 952.883L0.000183105 918.777C-0.00970459 900.021 0.458679 884.69 1.04309 884.708C1.62756 884.731 6.1955 900.751 11.195 920.307ZM70.7365 922.601L81.3497 945.76L82.7987 976.975C83.5954 994.142 83.7496 1008.75 83.1412 1009.43C81.2704 1011.52 64.3487 974.538 64.6784 969.073C64.8483 966.253 65.4001 959.384 65.9039 953.805C67.8851 931.904 63.9086 946.029 53.785 996.852C47.9648 1026.08 42.7614 1049.28 42.2223 1048.41C41.3293 1046.97 39.8138 1017.5 39.2054 989.754C39.0285 981.657 41.611 968.074 48.8364 939.097C54.2662 917.321 59.0266 899.49 59.4157 899.472C59.8049 899.457 64.8992 909.866 70.7365 922.601ZM125.925 925.23C125.925 927.258 125.288 928.917 124.51 928.917C123.732 928.917 123.095 927.258 123.095 925.23C123.095 923.202 123.732 921.543 124.51 921.543C125.288 921.543 125.925 923.202 125.925 925.23ZM125.382 941.608C126.774 951.065 125.266 960.228 122.121 961.4C120.435 962.031 118.213 965.242 117.184 968.542C115.567 973.726 115.654 974.209 117.821 972.093C119.932 970.028 120.101 970.755 118.885 976.676C117.685 982.52 117.979 983.984 120.621 985.311C122.969 986.487 122.624 987.037 119.298 987.409C114.525 987.94 112.343 996.31 114.016 1007.67C114.511 1011.03 114.211 1013.72 113.341 1013.72C112.479 1013.72 111.774 1017.04 111.774 1021.09C111.774 1025.15 112.668 1028.47 113.761 1028.47C115.196 1028.47 114.575 1034.11 111.525 1048.78C109.201 1059.96 106.775 1068.25 106.131 1067.21C104.223 1064.14 100.032 996.579 101.372 990.506C103.35 981.543 114.566 951.04 115.884 951.04C116.554 951.04 117.437 947.721 117.845 943.665C118.709 935.052 124.196 933.552 125.382 941.608ZM4.93463 984.946C16.6657 1019.92 22.5157 1041.11 23.2969 1051.44C23.7964 1058.07 24.9072 1072.22 25.7648 1082.88C26.6223 1093.54 26.8643 1103.45 26.3054 1104.91C25.7464 1106.37 22.6119 1100.13 19.3403 1091.06C12.0709 1070.89 5.12146 1046.9 6.54785 1046.9C7.12518 1046.9 6.44305 1044.71 5.03223 1042.02C3.07513 1038.29 2.60114 1033.49 3.02991 1021.77C3.33838 1013.32 3.05115 1005.94 2.39032 1005.37C1.72949 1004.79 1.3941 998.065 1.646 990.414L2.10443 976.506L4.93463 984.946ZM73.5667 1005.05C84.8039 1026.39 86.5728 1033.7 88.4704 1066.69L89.4822 1084.25L84.7076 1078.96C80.311 1074.09 69.2238 1060.94 68.1553 1059.34C67.9034 1058.96 68.7539 1053.33 70.0444 1046.82C71.5473 1039.25 71.9025 1033.72 71.0322 1031.45C70.1619 1029.18 66.5167 1043.61 60.9101 1071.51C49.1407 1130.09 49.118 1130.13 46.077 1100.87L43.5992 1077.02L52.1181 1030.62C56.8035 1005.1 61.1577 984.375 61.7945 984.559C62.4327 984.747 67.7294 993.965 73.5667 1005.05ZM129.243 1024.15C130.531 1027.86 131.585 1032.96 131.585 1035.47C131.585 1039.98 127.493 1052.77 126.904 1050.11C126.739 1049.36 125.444 1045.15 124.029 1040.76C121.966 1034.36 121.768 1031.24 123.031 1025.09C124.97 1015.65 126.225 1015.46 129.243 1024.15ZM115.312 1021.09C114.831 1023.12 114.157 1024.78 113.813 1024.78C113.469 1024.78 113.189 1023.12 113.189 1021.09C113.189 1019.07 113.864 1017.41 114.688 1017.41C115.511 1017.41 115.793 1019.07 115.312 1021.09ZM126.432 1066.26C128.519 1079.23 127.044 1089.37 123.576 1085.9C120.995 1083.32 121.193 1087.32 124.052 1095.56C125.815 1100.63 126.014 1103.45 124.826 1106.55C123.771 1109.3 123.679 1112.91 124.557 1117.19C125.515 1121.85 124.872 1129.43 122.264 1144.28C120.272 1155.62 118.159 1164.89 117.568 1164.89C116.977 1164.89 114.41 1147.56 111.863 1126.37L107.233 1087.84L110.308 1076.59C113.876 1063.53 118.85 1061.36 118.85 1072.86C118.85 1078.94 119.209 1079.51 120.723 1075.82C121.753 1073.31 122.315 1067.44 121.973 1062.77C121.037 1050.02 124.218 1052.52 126.432 1066.26ZM80.1949 1083.76L91.776 1097.94L94.6996 1123.52C98.0888 1153.16 98.2897 1158.86 95.8544 1156.2C94.8808 1155.13 89.4242 1150.56 83.7256 1146.03C75.0129 1139.1 73.4945 1136.72 74.1737 1131.06C76.8073 1109.12 76.8242 1108.6 74.843 1110.25C73.752 1111.16 69.9426 1130.78 66.3779 1153.86C62.8148 1176.93 59.27 1196.36 58.5002 1197.03C57.7318 1197.7 55.6318 1186.01 53.8318 1171.06L50.5615 1143.89L58.1718 1106.51C62.3591 1085.96 66.4204 1069.24 67.1987 1069.36C67.977 1069.49 73.8256 1075.97 80.1949 1083.76ZM20.011 1108.66C29.7822 1134.6 31.0587 1139.73 33.8521 1164.29C35.5445 1179.16 36.7346 1192.8 36.4983 1194.6C36.2605 1196.4 30.2252 1183.4 23.0846 1165.71C13.0699 1140.9 9.88324 1130.6 9.14172 1120.65C8.61389 1113.55 7.69543 1101.52 7.10254 1093.92C6.35815 1084.38 6.5224 1080.09 7.63464 1080.09C8.52051 1080.09 14.0903 1092.95 20.011 1108.66ZM139.608 1121.57C144.095 1137.56 146.382 1160.27 144.195 1167.13C143.219 1170.19 142.265 1176.52 142.074 1181.19C141.706 1190.17 132.081 1242.32 130.79 1242.32C130.373 1242.32 127.773 1229.93 125.012 1214.79L119.994 1187.26L122.554 1169.8C123.962 1160.19 127.159 1145.35 129.657 1136.83C132.156 1128.29 133.824 1120.34 133.364 1119.14C132.906 1117.94 133.831 1116.96 135.422 1116.96C137.012 1116.96 138.896 1119.04 139.608 1121.57ZM87.4827 1158.53L100.691 1170.42L106.417 1204.66C109.565 1223.5 111.848 1239.67 111.491 1240.6C111.133 1241.54 104.842 1235.94 97.51 1228.16C84.3539 1214.21 84.1855 1213.87 84.6242 1202.36C84.9256 1194.43 84.4543 1190.7 83.1483 1190.7C81.7911 1190.7 80.3463 1204.35 78.2251 1237.21C76.5737 1262.8 74.6194 1285.3 73.8807 1287.22C73.0345 1289.43 70.3459 1277.7 66.6044 1255.47L60.6694 1220.21L65.7029 1187.04C68.4709 1168.8 70.7365 1152.21 70.7365 1150.17C70.7365 1144.45 73.2157 1145.69 87.4827 1158.53ZM28.5328 1194.21C40.1691 1222.71 42.4658 1230.38 45.3893 1250.44C47.2516 1263.21 49.0261 1275.17 49.3345 1277.01C52.0204 1293.06 24.3143 1236.05 20.8332 1218.36C17.2445 1200.12 12.6044 1161.2 14.0195 1161.2C14.5926 1161.2 21.1233 1176.06 28.5328 1194.21ZM149.982 1179.64C149.982 1181.67 149.307 1183.33 148.483 1183.33C147.659 1183.33 147.378 1181.67 147.859 1179.64C148.34 1177.61 149.014 1175.95 149.358 1175.95C149.702 1175.95 149.982 1177.61 149.982 1179.64ZM153.44 1197.03C153.877 1200 153.92 1203.77 153.532 1205.39C153.144 1207.03 153.719 1209.26 154.809 1210.35C159.194 1214.73 158.846 1234.03 153.599 1277.44C150.785 1300.71 148.025 1319.73 147.464 1319.71C145.998 1319.64 134.416 1266.62 134.416 1259.98C134.416 1256.91 136.956 1240.28 140.062 1223.01C144.892 1196.16 146.208 1191.62 149.177 1191.62C151.084 1191.62 153.003 1194.05 153.44 1197.03ZM99.7458 1240.23L115.312 1255.89L121.316 1284.77C124.617 1300.66 127.036 1314.4 126.688 1315.3C126.341 1316.21 119.66 1313.17 111.841 1308.55L97.6232 1300.15V1284.14C97.6232 1268.16 95.6025 1262.36 94.2921 1274.58C93.9114 1278.13 93.1855 1295.14 92.6788 1312.38C92.1736 1329.61 91.2964 1349.52 90.7303 1356.62L89.7001 1369.53L83.7567 1343.08C80.4865 1328.53 77.802 1313.59 77.7893 1309.89C77.7539 1299.29 82.4195 1229.69 83.3464 1227C83.8049 1225.67 91.1846 1231.62 99.7458 1240.23ZM164.604 1255.84C166.327 1260.33 165.579 1268.13 163.425 1268.13C160.05 1268.13 160.937 1274.74 165.901 1286.56C169.697 1295.6 170.137 1298.14 168.419 1301.06C165.463 1306.09 167.585 1310.05 170.822 1305.54C173.335 1302.04 173.447 1302.9 172.558 1319.07C171.113 1345.34 166.857 1389.81 165.788 1389.79C165.266 1389.78 161.731 1377.97 157.932 1363.55L151.023 1337.34L153.417 1314.72C155.566 1294.44 162.134 1253.38 163.231 1253.38C163.467 1253.38 164.086 1254.49 164.604 1255.84ZM29.6987 1258.91C31.1323 1263.42 31.0615 1264.44 29.3152 1264.44C28.1365 1264.44 26.8049 1261.96 26.3563 1258.91C25.9091 1255.87 26.0818 1253.38 26.7398 1253.38C27.3978 1253.38 28.7294 1255.87 29.6987 1258.91ZM36.1431 1274.33C42.4658 1277.6 55.0331 1308.19 59.478 1331.14C61.8652 1343.46 63.6242 1354.92 63.3865 1356.61C62.9124 1359.97 44.7709 1329.75 40.1521 1317.91C35.3804 1305.67 31.4761 1288.72 32.1949 1283.37C32.5685 1280.6 31.9997 1276.9 30.9327 1275.14C28.7974 1271.61 30.4091 1271.36 36.1431 1274.33ZM113.897 1318.52C125.533 1325.05 130.118 1329.3 132.055 1335.35C135.57 1346.32 141.967 1375.05 141.287 1376.82C140.985 1377.61 135.759 1375.41 129.672 1371.94C122.544 1367.87 118.121 1363.37 117.242 1359.28C114.105 1344.68 113.189 1354.9 113.189 1404.55C113.189 1432.94 112.68 1456.17 112.059 1456.17C111.436 1456.17 107.225 1441.66 102.698 1423.91L94.4676 1391.65L95.4397 1352.93C95.9746 1331.64 96.845 1313.22 97.3713 1312C97.8992 1310.78 105.335 1313.72 113.897 1318.52ZM180.831 1327.86C183.204 1334.05 182.951 1339.4 180.406 1336.85C179.239 1335.69 178.284 1336.34 178.284 1338.3C178.284 1340.27 178.96 1341.87 179.788 1341.87C180.614 1341.87 181.179 1344.78 181.04 1348.33C180.621 1359.04 181.092 1362.42 182.309 1357.42C183.935 1350.74 188.225 1355.78 187.146 1363.1C186.509 1367.42 186.894 1368.35 188.605 1366.64C189.883 1365.36 191.3 1365.88 191.752 1367.79C192.712 1371.84 188.227 1449.24 186.783 1453.56C185.959 1456.02 179.259 1437.52 171.352 1410.96C169.69 1405.38 169.985 1398.79 173.462 1363.95C175.687 1341.67 177.872 1323.44 178.319 1323.44C178.766 1323.44 179.897 1325.43 180.831 1327.86ZM51.9723 1354.58C68.3633 1380.55 70.0756 1384.58 76.9487 1413.31C80.5374 1428.31 83.4723 1441.64 83.4723 1442.92C83.4723 1445.95 72.5662 1431.49 71.9279 1427.62C71.6619 1426 67.1096 1418.93 61.8115 1411.91C51.2987 1397.98 46.9671 1388.37 49.4181 1384.42C51.8181 1380.56 51.2082 1375.84 46.9048 1364.95C44.6931 1359.35 42.5237 1351.04 42.0837 1346.48C41.645 1341.92 41.3846 1338.22 41.5063 1338.27C41.628 1338.31 46.3374 1345.65 51.9723 1354.58ZM50.2756 1356.87C51.7983 1363.29 50.0648 1364.65 48.1233 1358.55C47.0068 1355.05 46.8992 1352.93 47.8388 1352.93C48.6652 1352.93 49.7634 1354.7 50.2756 1356.87ZM125.218 1378.78C127.552 1380.47 133.111 1383.74 137.571 1386.07C145.325 1390.11 146.024 1391.45 153.559 1416.72C157.987 1431.57 160.729 1443.77 159.818 1444.56C158.926 1445.33 152.755 1442.16 146.107 1437.5C137.311 1431.34 133.834 1427.21 133.344 1422.33C132.974 1418.64 131.72 1415.62 130.56 1415.62C129.081 1415.62 128.685 1418.1 129.235 1423.91C129.668 1428.47 131.028 1453.59 132.258 1479.73C134.346 1524.1 134.242 1536.86 131.863 1527.8C131.321 1525.74 128.012 1514.3 124.51 1502.39L118.142 1480.73L117.655 1427.89C117.127 1370.57 116.798 1372.71 125.218 1378.78ZM56.5855 1386.12C56.5855 1388.15 55.9487 1389.81 55.1704 1389.81C54.3922 1389.81 53.7553 1388.15 53.7553 1386.12C53.7553 1384.09 54.3922 1382.43 55.1704 1382.43C55.9487 1382.43 56.5855 1384.09 56.5855 1386.12ZM184.2 1387.99C184.731 1389.39 184.782 1393.12 184.313 1396.3C183.706 1400.42 183.999 1401.21 185.338 1399.06C186.631 1396.97 186.875 1397.46 186.126 1400.62C184.67 1406.75 182.106 1399.99 182.75 1391.71C183.017 1388.27 183.669 1386.6 184.2 1387.99ZM200.925 1403.32C202.092 1404.2 205.276 1412.59 208 1421.97C213.064 1439.39 214.507 1455.56 211.289 1458.78C209.833 1460.23 209.833 1461.48 211.292 1465.28C212.687 1468.91 212.781 1475.94 211.702 1496.26C210.935 1510.71 209.846 1522.54 209.28 1522.54C207.102 1522.54 191.019 1473.18 191.019 1466.49C191.019 1462.61 191.622 1452.48 192.359 1443.98C193.097 1435.48 194.082 1422.3 194.547 1414.69C195.359 1401.41 196.261 1399.81 200.925 1403.32ZM69.3214 1410.53C69.3214 1415.43 68.9379 1415.69 67.1987 1411.93C66.0312 1409.4 65.076 1406.71 65.076 1405.95C65.076 1405.18 66.0312 1404.55 67.1987 1404.55C68.3661 1404.55 69.3214 1407.25 69.3214 1410.53ZM61.5383 1426.68C62.0195 1428.7 61.7379 1430.36 60.9143 1430.36C60.0908 1430.36 59.4157 1428.7 59.4157 1426.68C59.4157 1424.65 59.6959 1422.99 60.0397 1422.99C60.3836 1422.99 61.0572 1424.65 61.5383 1426.68ZM205.391 1446.03C206.212 1463.14 205.835 1469.94 204.159 1468.26C202.034 1466.14 201.662 1441.43 203.755 1441.43C204.534 1441.43 205.269 1443.5 205.391 1446.03ZM152.938 1452.11C167.206 1462.74 167.615 1463.5 180.526 1503.73L184.547 1516.26L172.571 1513.62C162.655 1511.43 160.185 1509.6 158.206 1502.96C155.89 1495.18 155.786 1495.15 154.765 1502.09C154.186 1506.02 154.473 1529.08 155.403 1553.33C156.334 1577.58 156.818 1598.14 156.478 1599.02C155.704 1601.04 145.806 1572.86 142.734 1559.88C141.47 1554.56 139.373 1531.11 138.069 1507.79C136.768 1484.47 135.343 1460 134.901 1453.41C133.905 1438.5 134.584 1438.45 152.938 1452.11ZM72.8166 1444.12C81.0185 1449.54 90.6129 1468.71 97.5822 1493.6C101.591 1507.92 104.527 1520.53 104.106 1521.63C102.617 1525.51 70.7874 1484.52 69.9496 1477.65C69.4996 1473.95 68.6393 1470.92 68.0379 1470.92C66.8379 1470.92 63.661 1454.46 63.661 1448.23C63.661 1446.08 64.6161 1445.28 65.7836 1446.45C66.951 1447.61 67.9062 1446.96 67.9062 1445C67.9062 1441.24 68.3336 1441.16 72.8166 1444.12ZM223.341 1468.37C224.23 1471.16 224.539 1474.54 224.026 1475.87C223.514 1477.2 224.225 1478.3 225.604 1478.3C227.205 1478.3 227.832 1480.22 227.335 1483.59C226.906 1486.5 226.998 1489.4 227.537 1490.04C228.078 1490.68 229.67 1496.59 231.076 1503.18C232.987 1512.14 233.165 1515.2 231.784 1515.29C230.56 1515.36 230.771 1517.06 232.411 1520.3C234.413 1524.26 234.887 1530.95 234.887 1555.21C234.887 1571.72 234.361 1585.22 233.716 1585.22C233.072 1585.22 228.614 1575.54 223.81 1563.7C215.614 1543.51 215.082 1541.18 215.167 1525.91C215.288 1504.12 218.444 1466.15 220.265 1464.57C221.069 1463.87 222.453 1465.58 223.341 1468.37ZM224.741 1495.81C226.558 1505.02 225.246 1511.55 221.68 1511.05C219.286 1510.72 219.156 1510.26 221.092 1508.94C222.925 1507.69 223.344 1504.93 222.706 1498.31C221.704 1487.9 222.893 1486.44 224.741 1495.81ZM85.152 1515.86C87.2138 1521.23 87.6709 1524.43 86.5219 1525.42C84.4587 1527.22 77.8119 1516.51 77.8119 1511.4C77.8119 1505.02 81.9638 1507.55 85.152 1515.86ZM227.812 1522.54C229.087 1524.69 229.262 1526.14 228.249 1526.17C227.322 1526.2 226.17 1524.57 225.689 1522.54C224.604 1517.96 225.093 1517.96 227.812 1522.54ZM175.37 1522.86L187.313 1525.85L197.239 1551.71C202.697 1565.94 206.759 1578.62 206.267 1579.91C205.775 1581.19 199.862 1581.05 193.131 1579.58C183.659 1577.53 180.729 1575.57 180.178 1570.93C179.788 1567.64 178.745 1560.8 177.86 1555.73L176.254 1546.51L175.773 1558.15C175.51 1564.55 177.6 1592.44 180.417 1620.11C183.236 1647.79 185.338 1672.03 185.089 1673.98C184.84 1675.93 179.621 1664.39 173.493 1648.33L162.354 1619.13L160.46 1577.29C157.935 1521.44 157.957 1518.75 160.949 1519.36C162.31 1519.63 168.8 1521.21 175.37 1522.86ZM91.6176 1521.3C92.5954 1522.33 93.0355 1524.69 92.5954 1526.54C92.1553 1528.4 92.2317 1531.75 92.7637 1534C93.4543 1536.91 94.0034 1536.93 94.6784 1534.09C95.8615 1529.1 103.552 1534.26 109.783 1544.23C114.252 1551.37 125.394 1584.15 124.312 1586.97C123.024 1590.33 98.3464 1567.44 98.72 1563.24C98.9719 1560.4 98.0973 1559.69 96.2435 1561.23C93.8747 1563.19 93.3779 1561.96 93.3779 1554.13C93.3779 1548.92 92.7411 1544.66 91.9628 1544.66C91.1846 1544.66 90.5477 1546.32 90.5477 1548.35C90.5477 1554.44 88.5143 1552.53 86.6294 1544.66C85.1308 1538.41 85.2836 1536.34 87.6313 1531.1C89.1553 1527.7 90.0794 1523.55 89.6846 1521.89C88.9006 1518.58 88.9954 1518.55 91.6176 1521.3ZM247.042 1531.76C247.561 1537.15 248.946 1540.98 250.38 1540.98C251.727 1540.98 253.568 1545.2 254.471 1550.37C256.271 1560.66 256.762 1631.7 255.052 1634.39C254.468 1635.31 250.537 1628.1 246.314 1618.37L238.637 1600.68L238.97 1579.24C239.154 1567.44 239.887 1555.96 240.6 1553.72C241.313 1551.48 241.598 1543.55 241.231 1536.1C240.659 1524.47 240.962 1522.54 243.359 1522.54C245.161 1522.54 246.47 1525.82 247.042 1531.76ZM222.859 1529.92C223.34 1531.94 222.74 1533.6 221.527 1533.6C220.315 1533.6 219.321 1531.94 219.321 1529.92C219.321 1527.89 219.92 1526.23 220.653 1526.23C221.386 1526.23 222.378 1527.89 222.859 1529.92ZM269.308 1580.51L275.914 1594.44L275.919 1637.76C275.922 1661.59 275.549 1681.09 275.089 1681.09C274.63 1681.09 270.839 1673.48 266.665 1664.2L259.077 1647.3L259.898 1609.81C260.35 1589.19 261.166 1571.03 261.71 1569.45C262.255 1567.87 265.674 1572.85 269.308 1580.51ZM117.135 1593.21C128.414 1603.07 131.225 1607.26 136.946 1622.79C147.909 1652.53 147.822 1652.6 123.095 1633.66C111.744 1624.97 109.695 1622.24 109.935 1616.15C110.1 1611.94 108.988 1607.45 107.264 1605.38C105.641 1603.42 104.457 1600.3 104.632 1598.46C104.808 1596.61 103.94 1593.63 102.703 1591.82C100.025 1587.92 99.7218 1581.49 102.222 1581.63C103.194 1581.68 109.906 1586.9 117.135 1593.21ZM208.895 1592.16C214.165 1594.87 234.642 1643.28 231.746 1646.17C230.738 1647.18 224.506 1648.4 217.896 1648.88C206.393 1649.71 205.858 1649.39 205.425 1641.45C204.991 1633.48 203.652 1630.96 202.056 1635.12C201.64 1636.21 202.517 1654.78 204.006 1676.39C207.85 1732.23 207.507 1734.83 199.016 1714.12C192.276 1697.68 192.071 1696.51 187.353 1647.76C184.711 1620.46 182.544 1596.06 182.539 1593.52C182.529 1588.6 200.205 1587.69 208.895 1592.16ZM283.005 1609.89C283.006 1611.53 284.915 1616.19 287.246 1620.25C289.576 1624.31 291.485 1629.8 291.487 1632.45C291.49 1635.11 292.084 1636.32 292.81 1635.15C293.534 1633.99 295.126 1636.75 296.348 1641.29C298.013 1647.49 298.566 1658.99 298.566 1687.44C298.566 1708.28 298.09 1725.32 297.505 1725.31C296.921 1725.29 292.783 1717.69 288.307 1708.42L280.17 1691.55V1651.51C280.17 1628.79 280.783 1610.48 281.585 1609.19C282.364 1607.94 283.002 1608.25 283.005 1609.89ZM136.374 1653.37C150.43 1664.51 152.409 1667.22 158.999 1684.39C167.499 1706.54 167.055 1706.96 147.113 1695.62C133.923 1688.12 128.577 1680.16 127.831 1666.92C127.666 1663.98 126.442 1658.91 125.113 1655.66C123.784 1652.41 123.142 1651.82 123.686 1654.36C125.791 1664.15 121.049 1658.39 117.616 1646.98C115.912 1641.33 116 1640.57 118.323 1640.85C119.779 1641.03 127.903 1646.66 136.374 1653.37ZM307.777 1667.26C308.877 1673.85 309.801 1677.78 309.832 1675.98C309.862 1674.19 311.207 1677.09 312.821 1682.43C314.432 1687.78 317.033 1692.15 318.599 1692.15C322.375 1692.15 321.188 1701.02 317.206 1702.55C315.515 1703.19 314.132 1704.44 314.132 1705.31C314.132 1708.25 319.782 1721.65 321.023 1721.65C322.619 1721.65 323.009 1764.83 321.437 1767.37C320.779 1768.43 316.637 1762.4 312.233 1753.98L304.227 1738.67L304.316 1716.33C304.385 1699.2 304.705 1695.92 305.686 1702.29C306.391 1706.85 307.373 1710.58 307.871 1710.58C308.367 1710.58 308.382 1707.91 307.9 1704.64C307.283 1700.46 307.636 1699.31 309.092 1700.77C310.46 1702.14 310.899 1701.08 310.392 1697.63C309.971 1694.77 308.411 1691.43 306.927 1690.2C304.806 1688.44 304.227 1684.46 304.227 1671.62C304.227 1662.63 304.576 1655.28 305.002 1655.28C305.43 1655.28 306.678 1660.67 307.777 1667.26ZM245.774 1670.63C249.815 1679.42 253.158 1688.52 253.203 1690.84C253.254 1693.48 249.001 1696.06 241.878 1697.7C231.709 1700.04 230.264 1699.59 228.55 1693.48C224.026 1677.36 224.846 1695.5 230.533 1737.43C233.895 1762.21 236.982 1786.51 237.393 1791.42L238.142 1800.37L233.525 1791.8C230.986 1787.09 225.398 1774.72 221.109 1764.32L213.31 1745.41L210.194 1704.95L207.078 1664.5L210.454 1661.99C212.312 1660.61 219.365 1658.4 226.128 1657.07L238.425 1654.65L245.774 1670.63ZM316.019 1676.17C316.538 1677.52 316.963 1681.04 316.963 1684C316.963 1688.35 316.562 1688.5 314.84 1684.77C313.673 1682.25 312.717 1678.73 312.717 1676.95C312.717 1673.13 314.676 1672.67 316.019 1676.17ZM267.184 1717.79C271.077 1725.81 274.62 1733.88 275.057 1735.72C275.495 1737.56 271.107 1741.19 265.306 1743.77C254.895 1748.41 254.724 1748.36 251.946 1739.67C249.311 1731.42 249.13 1731.33 249.103 1738.24C249.088 1742.29 251.941 1767.85 255.444 1795.03C258.948 1822.21 261.529 1845.19 261.181 1846.1C259.487 1850.51 248.314 1820.87 244.842 1802.76C239.592 1775.38 231.423 1714.7 232.581 1711.68C233.75 1708.63 246.408 1703.84 254.217 1703.48C259.023 1703.26 261.406 1705.89 267.184 1717.79ZM156.508 1710.91C168.924 1716.89 173.595 1721.95 178.237 1734.43C180.88 1741.53 182.675 1748.31 182.223 1749.48C181.773 1750.65 177.996 1749.83 173.83 1747.66C169.664 1745.49 164.026 1742.85 161.302 1741.8C153.292 1738.7 152.202 1737.07 150.166 1725.08C147.715 1710.66 149.182 1707.38 156.508 1710.91ZM346.592 1739.65C348.413 1748.52 350.423 1817.51 348.859 1817.51C348.368 1817.51 343.29 1809.29 337.573 1799.24L327.18 1780.96L327.041 1756.84C326.953 1741.59 327.473 1732.71 328.452 1732.71C329.304 1732.71 329.65 1735.09 329.222 1738C328.259 1744.54 331.019 1747.53 334.149 1743.35C335.68 1741.3 337.067 1742.09 338.2 1745.65C340.242 1752.06 342.212 1749.66 343.738 1738.92C344.841 1731.15 344.844 1731.15 346.592 1739.65ZM293.933 1770.41C300.335 1783.14 305.59 1794.79 305.608 1796.31C305.626 1797.83 299.86 1799.07 292.793 1799.07H279.942L277.719 1784.33C276.497 1776.21 274.698 1769.58 273.722 1769.58C271.37 1769.58 273.917 1795.02 281.541 1847.69C289.23 1900.79 289.201 1901.36 279.717 1884.31C270.998 1868.64 269.448 1862.91 264.621 1828.52C262.206 1811.31 259.24 1790.15 258.03 1781.49C256.82 1772.84 256.162 1763.51 256.567 1760.75C257.005 1757.79 260.656 1754.74 265.554 1753.25C270.091 1751.88 275.713 1749.97 278.048 1749.01C281.584 1747.57 284.236 1751.14 293.933 1770.41ZM355.817 1754.58C356.265 1756.46 355.984 1759.05 355.193 1760.32C354.402 1761.6 353.755 1760.05 353.755 1756.89C353.755 1750.41 354.604 1749.46 355.817 1754.58ZM184.651 1761.94C186.986 1763.41 190.17 1766.43 191.727 1768.65C195.947 1774.66 206.022 1802.76 203.96 1802.76C198.191 1802.76 181.341 1793.94 178.687 1789.53C176.963 1786.67 174.576 1784.33 173.38 1784.33C171.139 1784.33 170.393 1778.76 172.269 1776.02C172.854 1775.17 172.555 1774.96 171.607 1775.55C170.659 1776.14 169.507 1775.04 169.047 1773.1C168.587 1771.16 169.008 1769.58 169.98 1769.58C170.953 1769.58 170.513 1767.14 169.002 1764.17C166.472 1759.18 166.814 1758.77 173.331 1759.01C177.222 1759.15 182.317 1760.47 184.651 1761.94ZM358.354 1783.28C361.334 1784.46 362.246 1786.86 362.246 1793.52C362.246 1798.3 361.449 1802.92 360.477 1803.76C359.503 1804.61 360.436 1804.62 362.547 1803.77C365.718 1802.5 366.545 1803.89 367.299 1811.72C367.801 1816.93 368.711 1821.2 369.321 1821.2C369.931 1821.2 370.847 1825.76 371.357 1831.34C371.868 1836.92 372.617 1844.38 373.022 1847.93C373.426 1851.48 373.152 1854.38 372.412 1854.38C371.672 1854.38 370.733 1851.06 370.326 1847.01C369.852 1842.28 368.393 1839.63 366.27 1839.62C364.446 1839.61 361.039 1836.56 358.699 1832.85C354.811 1826.67 354.407 1824.13 354.013 1803.36C353.775 1790.86 353.779 1780.89 354.021 1781.19C354.264 1781.49 356.215 1782.44 358.354 1783.28ZM370.736 1788.13C370.736 1790.09 369.781 1791.7 368.614 1791.7C367.446 1791.7 366.491 1791.05 366.491 1790.25C366.491 1789.46 367.446 1787.85 368.614 1786.68C369.781 1785.51 370.736 1786.17 370.736 1788.13ZM379.206 1790.04C379.217 1792.17 381.296 1795.86 383.826 1798.25C386.356 1800.64 389.127 1805.53 389.983 1809.13C391.356 1814.89 390.934 1815.78 386.445 1816.58C382.132 1817.36 380.994 1815.87 379.037 1806.89C377.585 1800.23 377.182 1794.4 377.955 1791.22C378.63 1788.44 379.193 1787.91 379.206 1790.04ZM311.067 1809.14C313.663 1809.97 320.66 1819.18 326.618 1829.61L337.449 1848.57L332.911 1850.99C330.415 1852.31 324.662 1854.5 320.127 1855.83L311.88 1858.26L309.366 1843.42C307.984 1835.25 305.943 1828.57 304.832 1828.57C302.287 1828.57 302.166 1826.71 306.501 1854.6C315.774 1914.29 321.092 1951.78 320.503 1953.31C319.762 1955.25 297.983 1918.59 295.797 1911.72C294.466 1907.54 281.585 1815.45 281.585 1810.11C281.585 1807.55 303.808 1806.82 311.067 1809.14ZM205.347 1813.51C210.011 1815.22 214.156 1820.46 219.767 1831.74C231.975 1856.27 232.261 1858.19 223.343 1855.65C219.185 1854.47 215.052 1851.12 214.158 1848.21C212.164 1841.73 204.242 1835.63 191.727 1830.91C189.849 1830.21 188.747 1826.53 188.45 1819.99C188.029 1810.76 188.342 1810.17 193.402 1810.63C196.373 1810.9 201.747 1812.2 205.347 1813.51ZM388.425 1824.88C388.906 1826.91 390.456 1828.57 391.869 1828.57C393.627 1828.57 394.439 1831.32 394.439 1837.28C394.439 1845.63 394.276 1845.77 390.371 1840.7C387.999 1837.61 386.302 1832.44 386.302 1828.3C386.302 1820.47 387.082 1819.22 388.425 1824.88ZM406.821 1832.26C407.302 1834.29 406.702 1835.95 405.489 1835.95C404.277 1835.95 403.283 1834.29 403.283 1832.26C403.283 1830.23 403.882 1828.57 404.615 1828.57C405.348 1828.57 406.34 1830.23 406.821 1832.26ZM383.172 1832.95C384.115 1835.41 384.887 1839.38 384.887 1841.76C384.887 1844.15 385.842 1848.17 387.01 1850.69C388.177 1853.22 389.132 1856.92 389.132 1858.91C389.132 1860.91 388.177 1861.59 387.01 1860.42C385.842 1859.26 384.887 1859.91 384.887 1861.87C384.887 1866.71 388.735 1866.41 389.905 1861.48C391.347 1855.4 397.623 1872.64 397.623 1882.68C397.623 1887.39 397.228 1891.25 396.747 1891.25C396.264 1891.25 392.125 1885.32 387.549 1878.08C379.667 1865.6 377.168 1858.07 380.912 1858.07C381.839 1858.07 381.362 1855.63 379.851 1852.66C378.341 1849.68 377.831 1847.19 378.722 1847.13C379.612 1847.06 380.703 1844.54 381.147 1841.52C381.591 1838.5 381.501 1836.43 380.945 1836.91C380.389 1837.4 379.728 1836.17 379.474 1834.19C378.775 1828.73 381.233 1827.9 383.172 1832.95ZM417.906 1845.78C419.761 1850.61 418.801 1853.66 416.019 1851.76C414.463 1850.7 413.189 1848.37 413.189 1846.58C413.189 1842.77 416.533 1842.2 417.906 1845.78ZM434.062 1867.81C437.369 1873 440.155 1879.57 440.253 1882.41C440.35 1885.25 440.564 1892.13 440.727 1897.71C440.891 1903.28 441.53 1918.22 442.149 1930.89C443.48 1958.21 442.982 1958.81 432.235 1942.79L424.757 1931.64L424.281 1909.33C424.017 1897.06 424.299 1883.55 424.906 1879.3C425.54 1874.86 425.39 1869.95 424.552 1867.77C419.732 1855.21 426.058 1855.23 434.062 1867.81ZM417.16 1861.31C418.619 1863.66 418.571 1865.14 416.919 1868.71C415.395 1872.01 414.597 1872.08 413.863 1868.99C412.507 1863.27 414.907 1857.69 417.16 1861.31ZM354.934 1876.96C368.059 1898.11 368.026 1900.43 354.555 1904.07C349.834 1905.34 344.311 1907.21 342.28 1908.22C339.202 1909.74 338.292 1908.18 336.802 1898.8C334.957 1887.2 332.529 1883.7 332.529 1892.65C332.529 1895.45 336.31 1919.89 340.931 1946.96C345.552 1974.03 349.061 1996.89 348.73 1997.75C348.399 1998.61 343.568 1992.01 337.994 1983.08L327.862 1966.84L320.993 1920.75C317.216 1895.4 314.399 1872.77 314.732 1870.45C315.066 1868.14 320.004 1865.15 325.704 1863.81C331.404 1862.47 337.658 1860.6 339.604 1859.67C342.134 1858.44 346.501 1863.37 354.934 1876.96ZM406.821 1865.44C407.302 1867.47 407.021 1869.13 406.197 1869.13C405.373 1869.13 404.698 1867.47 404.698 1865.44C404.698 1863.41 404.979 1861.76 405.323 1861.76C405.666 1861.76 406.34 1863.41 406.821 1865.44ZM231.133 1869.31C237.219 1871.97 241.574 1877.98 251.058 1896.82C252.558 1899.8 253.429 1903.16 252.996 1904.29C251.86 1907.25 233.506 1897.94 233.295 1894.3C233.198 1892.62 233.039 1889.32 232.942 1886.95C232.667 1880.27 229.227 1878.84 229.227 1885.42C229.227 1888.63 228.59 1891.25 227.812 1891.25C227.034 1891.25 226.397 1888.76 226.397 1885.72C226.397 1879.19 224.755 1878.57 222.566 1884.27C221.42 1887.26 220.565 1886.25 219.386 1880.51C216.342 1865.69 218.391 1863.74 231.133 1869.31ZM215.076 1869.13C215.076 1871.16 214.401 1872.82 213.577 1872.82C212.754 1872.82 212.472 1871.16 212.953 1869.13C213.434 1867.1 214.108 1865.44 214.452 1865.44C214.796 1865.44 215.076 1867.1 215.076 1869.13ZM405.406 1876.5C404.925 1878.53 405.274 1880.19 406.181 1880.19C407.089 1880.19 407.465 1882.68 407.016 1885.72C406.415 1889.81 407.297 1891.4 410.403 1891.81C417.679 1892.76 418.118 1893.01 419.182 1896.78C420.356 1900.95 420.658 1924.44 419.536 1924.44C419.135 1924.44 415.389 1919.41 411.214 1913.27C405.249 1904.5 403.433 1899.66 402.744 1890.69C401.493 1874.38 401.609 1872.82 404.074 1872.82C405.287 1872.82 405.887 1874.48 405.406 1876.5ZM414.604 1902.31C414.604 1909.2 414.226 1910.18 412.906 1906.74C411.586 1903.3 411.586 1901.33 412.906 1897.89C414.226 1894.45 414.604 1895.43 414.604 1902.31ZM459.18 1902.31C459.661 1904.34 459.379 1906 458.555 1906C457.732 1906 457.057 1904.34 457.057 1902.31C457.057 1900.29 457.337 1898.63 457.681 1898.63C458.025 1898.63 458.698 1900.29 459.18 1902.31ZM461.053 1914.65C462.15 1935.6 462.597 1979.71 461.713 1979.59C461.097 1979.51 457.729 1975.78 454.227 1971.3C447.999 1963.33 447.849 1962.72 447.43 1943.73C447.195 1933.05 447.513 1924.61 448.138 1924.97C450.157 1926.17 457.057 1920.04 457.057 1917.06C457.057 1912.3 460.813 1910.03 461.053 1914.65ZM383.861 1920.5C394.714 1936.59 394.668 1936.99 380.728 1948.13C373.721 1953.73 367.5 1958.58 366.904 1958.89C366.308 1959.21 364.982 1954.9 363.957 1949.32C362.39 1940.8 358 1934.78 358 1941.15C358 1944.95 364.903 1978.55 372.023 2009.41C375.979 2026.55 378.61 2041.11 377.87 2041.75C376.21 2043.2 364.142 2025.53 359.653 2015.08C355.719 2005.92 340.496 1924.18 342.057 1920.59C343.469 1917.35 365.749 1909.56 372.151 1910.08C374.875 1910.3 380.145 1914.99 383.861 1920.5ZM245.854 1916.07C249.161 1916.85 251.868 1918.68 251.868 1920.14C251.868 1921.59 254.267 1922.19 257.199 1921.46C261.501 1920.4 264.03 1922.78 270.289 1933.83C281.955 1954.41 281.963 1954.68 270.972 1953.53C256.811 1952.04 255.129 1949.65 259.752 1937.6C260.976 1934.42 261.275 1931.81 260.416 1931.81C259.557 1931.81 258.488 1934.3 258.041 1937.34C257.116 1943.62 249.038 1945.05 249.038 1938.94C249.038 1936.77 247.923 1935.9 246.562 1937.01C245.2 1938.11 243.13 1937.42 241.963 1935.47C240.55 1933.11 240.432 1931.91 241.609 1931.87C242.581 1931.84 243.378 1930.05 243.378 1927.91C243.378 1925.76 242.67 1925.14 241.804 1926.53C240.94 1927.93 239.676 1926.78 238.997 1923.99C237.468 1917.7 237.369 1913.17 238.779 1914.02C239.363 1914.37 242.547 1915.3 245.854 1916.07ZM469.085 1920.75C468.604 1922.78 468.922 1924.44 469.793 1924.44C470.663 1924.44 470.981 1926.1 470.5 1928.12C469.022 1934.36 466.963 1932.21 466.963 1924.44C466.963 1920.38 467.638 1917.06 468.461 1917.06C469.285 1917.06 469.566 1918.72 469.085 1920.75ZM483.523 1944.5C483.089 1951.47 483.334 1957.71 484.068 1958.34C485.687 1959.75 489.052 2004.54 487.786 2007.83C486.037 2012.39 468.597 1989.69 467.783 1981.79C466.408 1968.46 466.858 1934.89 468.378 1937.34C469.156 1938.6 469.793 1937.86 469.793 1935.72C469.793 1928.85 473.056 1931.51 477.144 1941.72L481.113 1951.63V1941.72C481.113 1936.27 481.834 1931.81 482.714 1931.81C483.747 1931.81 484.034 1936.31 483.523 1944.5ZM410.005 1958.46C414.869 1964.88 418.849 1971.34 418.849 1972.82C418.849 1974.3 413.914 1980.54 407.882 1986.68L396.915 1997.84L393.239 1986.39C386.7 1966.02 387.441 1981.61 394.531 2013.53C398.285 2030.43 403.064 2051.29 405.151 2059.86C411.403 2085.57 410.169 2088.46 399.15 2073.91C395.372 2068.92 390.124 2058.28 387.488 2050.26C381.911 2033.28 368.614 1972.98 369.777 1969.95C371.28 1966.04 394.936 1946.56 398.045 1946.68C399.758 1946.74 405.14 1952.05 410.005 1958.46ZM499.51 1953.88C499.51 1955.6 499.033 1957.7 498.448 1958.55C497.864 1959.4 498.121 1959.66 499.019 1959.11C502.552 1956.98 505.031 1968.22 507.934 1999.54C509.601 2017.53 510.634 2033.11 510.229 2034.16C509.824 2035.21 505.814 2031.93 501.318 2026.88L493.142 2017.68L492.028 1997.79C491.417 1986.85 491.098 1972.27 491.321 1965.39C491.666 1954.76 492.314 1952.71 495.618 1951.81C497.758 1951.23 499.51 1952.16 499.51 1953.88ZM284.074 1967.83C286.612 1968.56 290.114 1971.19 291.857 1973.67C297.966 1982.36 309.887 2002.51 309.887 2004.14C309.887 2007.24 279.163 2004.8 277.189 2001.55C276.105 1999.76 275.854 1998.1 276.633 1997.87C277.411 1997.63 276.456 1996.25 274.51 1994.8C272.251 1993.11 271.122 1989.91 271.388 1985.95C271.783 1980.05 269.553 1977.87 264.836 1979.54C263.716 1979.94 263.148 1977.49 263.44 1973.52C263.841 1968.06 265.353 1966.81 271.698 1966.67C275.969 1966.58 281.539 1967.1 284.074 1967.83ZM520.029 1975.3L527.104 1981.59L531.761 2018.15C534.322 2038.27 536.233 2056.8 536.006 2059.34C535.708 2062.69 533.285 2061.49 527.145 2054.96C522.498 2050.01 518.108 2044.43 517.389 2042.55C516.215 2039.49 511.078 1984.65 510.901 1973.29C510.812 1967.49 511.391 1967.62 520.029 1975.3ZM441.192 1998.92C449.199 2009.31 455.221 2019.18 454.573 2020.87C453.925 2022.56 447.863 2028.82 441.1 2034.77L428.806 2045.6L425.413 2034.3C420.192 2016.92 417.988 2024.87 422.843 2043.57C429.597 2069.59 441.491 2122.5 441.491 2126.52C441.491 2128.61 437.192 2124.78 431.939 2118.01C424.089 2107.9 421.378 2101.88 416.727 2084.24C408.915 2054.62 399.038 2012.82 399.038 2009.38C399.038 2006.33 419.076 1983.7 423.802 1981.4C425.359 1980.65 433.184 1988.53 441.192 1998.92ZM543.458 1998.46C549.778 2005.73 549.997 2006.56 554.425 2040.18C558.656 2072.29 559.848 2086.67 558.277 2086.67C557.909 2086.67 554.217 2082.76 550.071 2077.98L542.534 2069.3L538.493 2034.66C536.27 2015.61 534.163 1997.95 533.81 1995.41C532.904 1988.9 535.989 1989.87 543.458 1998.46ZM567.393 2021.34L575.134 2029.52L578.328 2060.86C580.084 2078.1 581.536 2095.11 581.553 2098.65C581.595 2106.95 578.185 2106.78 570.862 2098.11C565.241 2091.46 564.995 2090.39 561.31 2056.57C557.313 2019.87 556.875 2012.86 558.59 2013.04C559.174 2013.1 563.135 2016.84 567.393 2021.34ZM415.251 2016.36C415.699 2018.25 415.418 2020.83 414.627 2022.11C413.836 2023.38 413.189 2021.84 413.189 2018.68C413.189 2012.2 414.038 2011.25 415.251 2016.36ZM488.086 2032.48C496.203 2041.12 503.101 2050.21 503.417 2052.68C504.307 2059.64 501.574 2058.11 491.727 2046.11C486.733 2040.03 482.142 2035.04 481.527 2035.03C480.91 2035.02 477.859 2030.92 474.746 2025.93C466.242 2012.28 471.566 2014.9 488.086 2032.48ZM323.684 2026.4C327.77 2031.67 331.114 2037.24 331.114 2038.77C331.114 2041.66 312.212 2046.95 308.472 2045.1C307.305 2044.53 305.553 2042.76 304.581 2041.18C303.542 2039.49 302.812 2040.09 302.812 2042.63C302.812 2045.49 301.609 2044.91 299.274 2040.92C297.328 2037.6 295.736 2036.53 295.736 2038.54C295.736 2040.55 293.418 2038.1 290.585 2033.1C287.754 2028.08 284.85 2023.99 284.134 2023.99C283.419 2023.99 283.191 2022.48 283.629 2020.64C284.065 2018.8 291.584 2017.18 300.34 2017.05C314.737 2016.83 316.964 2017.72 323.684 2026.4ZM473.962 2038.47C480.535 2046.07 486.13 2053.98 486.396 2056.06C486.661 2058.13 483.543 2063.57 479.466 2068.14C475.391 2072.71 469.623 2080.45 466.651 2085.34L461.248 2094.22L458.305 2081.23C455.383 2068.32 453.639 2065.45 452.26 2071.27C451.863 2072.93 456.027 2093.79 461.51 2117.62C466.994 2141.44 471.168 2161.74 470.789 2162.73C470.408 2163.72 466.05 2159.74 461.101 2153.89C454.496 2146.08 451.136 2139.41 448.463 2128.79C436.548 2081.46 431.585 2060.58 431.585 2057.8C431.585 2055.26 442.549 2043.21 459.887 2026.68C461.055 2025.57 467.389 2030.88 473.962 2038.47ZM587.953 2042.17C590.288 2045.77 592.835 2048.15 593.613 2047.45C596.289 2045.06 598.49 2051.97 599.303 2065.32C600.061 2077.74 599.885 2078.58 596.867 2077.11C594.225 2075.83 594.325 2076.27 597.407 2079.48C600.345 2082.54 601.814 2088.36 603.917 2105.27C605.41 2117.28 606.345 2127.85 605.995 2128.77C605.343 2130.46 603.525 2128.92 593.524 2118.16C587.85 2112.06 587.738 2111.57 584.828 2079.97C583.208 2062.36 581.656 2045.67 581.38 2042.89C580.617 2035.18 583.235 2034.89 587.953 2042.17ZM349.156 2065.11C353.241 2071.28 356.209 2077.9 355.75 2079.83C354.601 2084.68 331.76 2083.53 324.362 2078.26C320.724 2075.67 318.576 2072.2 318.966 2069.55C319.323 2067.14 318.557 2064.1 317.267 2062.81C312.484 2058.03 318.91 2053.6 330.406 2053.75C340.387 2053.88 342.606 2055.23 349.156 2065.11ZM612.01 2062.06C619.708 2069.91 622.548 2075.51 621.711 2081.19C621.267 2084.21 621.474 2086.67 622.17 2086.67C624.304 2086.67 624.017 2102 621.774 2107.84C619.101 2114.81 620.398 2118.82 623.296 2112.55C625.04 2108.78 625.453 2108.8 625.453 2112.66C625.453 2115.28 626.359 2120.05 627.465 2123.25C630.164 2131.05 631.873 2149.35 629.905 2149.35C629.071 2149.35 624.908 2145.95 620.652 2141.81L612.915 2134.27L608.567 2098.48C606.177 2078.8 604.221 2061.46 604.224 2059.94C604.228 2056.16 606.946 2056.9 612.01 2062.06ZM313.425 2060.86C312.944 2062.89 311.633 2064.55 310.511 2064.55C309.389 2064.55 308.472 2062.89 308.472 2060.86C308.472 2058.83 309.784 2057.17 311.386 2057.17C312.988 2057.17 313.906 2058.83 313.425 2060.86ZM504.84 2073.07C510.496 2079.33 514.921 2086.03 514.675 2087.95C514.17 2091.91 492.522 2123.42 490.263 2123.49C489.458 2123.52 487.671 2118.56 486.291 2112.48C484.912 2106.4 483.182 2101.42 482.448 2101.42C480.082 2101.42 481.024 2112.66 484.404 2124.71C486.214 2131.17 491.308 2149.18 495.724 2164.74C500.141 2180.31 503.755 2194.19 503.755 2195.59C503.755 2202.92 480.976 2178.45 478.991 2169C478.213 2165.29 475.596 2154.79 473.176 2145.66C470.755 2136.54 467.656 2123.39 466.288 2116.43C463.895 2104.28 463.9 2103.6 466.443 2098.66C469.054 2093.59 493.689 2060.48 494.261 2061.27C494.424 2061.5 499.184 2066.81 504.84 2073.07ZM527.812 2075.58C533.183 2083.76 622.897 2164.55 632.175 2169.57C634.703 2170.94 636.774 2173.78 636.774 2175.88C636.774 2178.12 635.452 2178.68 633.59 2177.25C631.838 2175.89 628.733 2173.97 626.687 2172.98C624.642 2171.99 615.409 2164.61 606.168 2156.6C596.929 2148.58 588.223 2141.26 586.825 2140.33C583.585 2138.18 567.621 2124.02 563.896 2119.99C562.34 2118.31 551.991 2108.18 540.901 2097.49C529.811 2086.8 520.736 2076.68 520.736 2074.99C520.736 2071.04 525.065 2071.4 527.812 2075.58ZM632.095 2077.98C633.024 2078.97 633.451 2082.03 633.045 2084.8C632.521 2088.35 633.148 2089.24 635.182 2087.86C637.802 2086.07 637.985 2087.16 637.224 2100.11C635.947 2121.85 634.418 2127.39 632.793 2116.17C631.961 2110.42 631.958 2106.46 632.787 2105.64C633.518 2104.93 633.198 2101.61 632.074 2098.27C629.592 2090.89 627.648 2075.5 629.25 2075.9C629.885 2076.06 631.166 2076.99 632.095 2077.98ZM374.274 2103.06C383.674 2117.02 383.534 2117.6 369.321 2123.41C354.262 2129.57 350.169 2128.55 347.517 2118.01C346.242 2112.94 344.499 2108.79 343.644 2108.79C342.615 2108.79 342.695 2110.7 343.878 2114.41C344.863 2117.5 345.31 2120.97 344.871 2122.11C344.434 2123.25 342.975 2119.81 341.631 2114.46C340.269 2109.05 338.338 2105.58 337.272 2106.65C336.219 2107.7 335.359 2106.97 335.359 2105.04C335.359 2097.85 345.775 2090.36 355.697 2090.4C364.564 2090.45 366.811 2091.98 374.274 2103.06ZM621.208 2097.95C621.208 2100.09 620.571 2100.83 619.793 2099.57C619.014 2098.32 618.378 2096.57 618.378 2095.67C618.378 2094.77 619.014 2094.04 619.793 2094.04C620.571 2094.04 621.208 2095.8 621.208 2097.95ZM536.302 2105.66C542.139 2111.68 547.391 2117.82 547.971 2119.32C548.553 2120.81 543.296 2129.36 536.291 2138.3L523.555 2154.57L519.431 2141.82C516.68 2133.32 514.837 2130.3 513.89 2132.76C512.393 2136.65 520.513 2167.54 534.607 2211.56C538.733 2224.45 541.831 2235.73 541.488 2236.62C541.147 2237.51 535.256 2232.52 528.397 2225.53C517.191 2214.11 515.243 2210.64 509.155 2191.23C495.794 2148.62 493.32 2138.06 495.454 2132.76C498.491 2125.21 521.451 2094.01 523.682 2094.39C524.786 2094.58 530.465 2099.65 536.302 2105.66ZM656.959 2099.94C657.424 2101.15 657.457 2104.51 657.029 2107.4C656.435 2111.44 655.8 2111.68 654.297 2108.43C653.22 2106.11 652.34 2102.75 652.34 2100.97C652.34 2097.31 655.667 2096.57 656.959 2099.94ZM641.83 2100.55C642.665 2102.04 643.814 2106.53 644.383 2110.53C645.249 2116.63 645.629 2116.93 646.733 2112.38C647.661 2108.56 648.11 2108.31 648.25 2111.56C648.612 2119.97 651.406 2139.59 653.755 2150.22C655.592 2158.53 655.568 2167.79 653.71 2167.79C652.906 2167.79 650.029 2165.37 647.316 2162.41C642.338 2157 641.981 2156.72 639.832 2156.72C638.572 2156.72 635.359 2140.53 635.359 2134.18C635.359 2132.09 636.621 2131.46 638.189 2132.76C640.249 2134.46 641.019 2133.42 641.019 2128.92C641.019 2124.95 641.776 2123.51 643.142 2124.88C644.309 2126.04 645.264 2125.39 645.264 2123.43C645.264 2119.74 643.248 2118.41 639.68 2119.74C638.04 2120.36 637.975 2119.44 639.351 2115.12C640.294 2112.15 640.671 2107.03 640.184 2103.73C639.212 2097.13 639.549 2096.48 641.83 2100.55ZM670.13 2114.96C672.058 2120.38 674.044 2129.09 674.547 2134.31C675.048 2139.54 676.969 2152.74 678.818 2163.63C680.666 2174.53 681.859 2184.28 681.471 2185.29C681.083 2186.3 676.655 2184.23 671.63 2180.68C662.718 2174.4 662.438 2173.83 660.164 2157.19C658.88 2147.81 657.227 2137.23 656.489 2133.68C655.422 2128.55 655.708 2127.23 657.886 2127.23C660.104 2127.23 660.522 2125.13 660.087 2116.17C659.615 2106.45 659.981 2105.1 663.087 2105.1C665.105 2105.1 668.132 2109.34 670.13 2114.96ZM351.409 2111.83C352.702 2115.56 353.339 2119.71 352.824 2121.05C352.309 2122.39 350.969 2120.08 349.847 2115.9C348.724 2111.73 348.088 2107.58 348.43 2106.69C348.774 2105.79 350.114 2108.11 351.409 2111.83ZM618.225 2119.55C621.482 2125.96 621.494 2126.17 618.679 2128.09C616.579 2129.52 615.58 2127.95 615.018 2122.35C613.989 2112.11 614.299 2111.84 618.225 2119.55ZM667.198 2123.54C666.717 2125.57 665.687 2127.23 664.909 2127.23C664.13 2127.23 663.887 2125.57 664.368 2123.54C664.849 2121.51 665.879 2119.85 666.658 2119.85C667.436 2119.85 667.679 2121.51 667.198 2123.54ZM571.326 2139.12C577.746 2145.3 583 2151.65 583 2153.22C583 2154.79 577.787 2163.91 571.415 2173.49L559.829 2190.9L556.858 2181.19C553.943 2171.66 550.453 2168.2 550.453 2174.83C550.453 2177.91 556.064 2197.04 565.146 2224.94C567.127 2231.02 568.77 2237.11 568.798 2238.48C568.827 2239.84 570.76 2245.94 573.095 2252.02C575.429 2258.11 577.34 2264.98 577.34 2267.3C577.34 2272.21 574.845 2270.64 561.774 2257.5C552.505 2248.19 548.483 2237.85 528.806 2172.75L526.263 2164.34L540.455 2145.78C548.261 2135.58 555.772 2127.38 557.149 2127.55C558.525 2127.73 564.905 2132.94 571.326 2139.12ZM400.016 2137.7C404.057 2143.09 407.4 2148.65 407.445 2150.05C407.626 2155.57 385.699 2159.71 372.151 2156.71C365.916 2155.33 360.831 2148.72 360.831 2141.98C360.831 2136.74 362.868 2134.71 371.502 2131.36C386.69 2125.48 391.691 2126.59 400.016 2137.7ZM691.634 2158.57C691.35 2164.09 692.18 2166.22 694.937 2167.06L698.62 2168.17L694.542 2179.54C692.299 2185.8 690.005 2189.64 689.445 2188.06C688.883 2186.5 689.22 2184.47 690.193 2183.57C691.166 2182.66 691.962 2180.22 691.962 2178.15C691.962 2176.07 691.024 2175.31 689.878 2176.45C687.518 2178.81 683.472 2165.93 683.472 2156.05C683.472 2151.21 684.516 2149.84 687.743 2150.42C691.12 2151.03 691.934 2152.74 691.634 2158.57ZM601.824 2165.69C607.119 2170.22 611.517 2175.45 611.598 2177.31C611.678 2179.17 607.795 2188.79 602.966 2198.68L594.188 2216.68L590.698 2208.13C588.484 2202.72 586.715 2200.88 585.859 2203.11C585.003 2205.34 586.861 2214.35 590.939 2227.75C596.36 2245.55 597.066 2249.65 595.445 2253.88C593.165 2259.82 584.132 2264.14 585.43 2258.67C585.934 2256.55 585.338 2255.98 584.001 2257.32C582.337 2258.98 579.337 2251.94 573.092 2231.71C568.354 2216.36 564.712 2201.97 564.999 2199.73C565.504 2195.77 589.962 2156.36 591.454 2157.09C591.863 2157.3 596.53 2161.16 601.824 2165.69ZM426.279 2172.09C431.531 2178.47 435.831 2185.01 435.831 2186.63C435.831 2189.93 431.04 2192.53 417.198 2196.72C407.998 2199.51 407.681 2199.32 404.486 2189.24C401.285 2179.14 400.35 2178.8 393.731 2185.28C392.758 2186.23 391.963 2184.34 391.963 2181.09C391.963 2177.83 391.326 2175.16 390.548 2175.16C389.769 2175.16 389.132 2173.63 389.132 2171.77C389.132 2169.9 393.431 2167.34 398.684 2166.09C403.937 2164.83 410.147 2163.06 412.481 2162.14C415.317 2161.04 419.898 2164.34 426.279 2172.09ZM723.276 2172.39C723.375 2172.9 723.605 2177.05 723.789 2181.61C724.16 2190.83 723.096 2192.12 720.571 2185.55C719.65 2183.15 718.536 2182.12 718.098 2183.26C717.659 2184.41 718.285 2187.91 719.489 2191.05C721.788 2197.04 722.426 2204.7 720.618 2204.6C717.996 2204.46 715.685 2197.5 716.476 2192.12C717.029 2188.36 716.591 2186.22 715.268 2186.22C714.124 2186.22 713.189 2184.61 713.189 2182.65C713.189 2180.69 714.062 2179.95 715.129 2181.02C716.196 2182.08 717.45 2180.37 717.915 2177.21C718.604 2172.53 722.598 2168.94 723.276 2172.39ZM699.205 2181C699.298 2182.85 699.322 2185.43 699.261 2186.71C699.199 2187.99 699.919 2188.98 700.862 2188.89C705.568 2188.49 707.528 2190.41 707.528 2195.44C707.528 2198.75 706.251 2200.92 704.344 2200.85C700.695 2200.72 696.826 2193.77 696.878 2187.45C696.924 2182.08 698.977 2176.39 699.205 2181ZM659.415 2189.73C664.474 2193.32 671.319 2198.21 674.627 2200.6C681.66 2205.68 682.776 2212.85 676.043 2209.69C672.174 2207.88 660.467 2198.54 652.34 2190.77C651.172 2189.66 649.469 2189.05 648.554 2189.43C647.64 2189.8 646.488 2188.4 645.994 2186.32C644.753 2181.09 648.621 2182.07 659.415 2189.73ZM628.283 2188.29C631.007 2191.07 636.102 2195.24 639.604 2197.57L645.972 2201.81L636.898 2223.6L627.823 2245.39L623.595 2234.12C619.592 2223.45 616.409 2220.83 617.036 2228.72C617.193 2230.69 623.291 2248.72 630.586 2268.78C643.079 2303.13 645.836 2315.32 642.372 2320.9C640.8 2323.43 636.211 2315.51 637.422 2312.35C638.227 2310.26 631.01 2293.16 629.318 2293.15C628.719 2293.15 628.628 2289 629.117 2283.93C629.864 2276.18 629.507 2274.71 626.869 2274.71C624.601 2274.71 623.971 2276.31 624.59 2280.51C625.195 2284.63 624.726 2285.95 622.971 2285.07C621.287 2284.22 620.551 2280.62 620.66 2273.74C620.79 2265.48 620.214 2263.65 617.476 2263.65C615.636 2263.65 614.132 2265.26 614.132 2267.22C614.132 2269.19 615.087 2269.84 616.255 2268.67C618.645 2266.28 619.184 2272.98 616.899 2276.66C615.634 2278.69 597.215 2231.99 597.226 2226.78C597.236 2222.71 619.119 2182.56 621.15 2182.89C622.348 2183.09 625.559 2185.52 628.283 2188.29ZM742.906 2199.13C743.922 2202.32 744.059 2204.66 743.23 2204.66C742.44 2204.66 741.427 2202.17 740.978 2199.13C740.531 2196.08 740.385 2193.6 740.654 2193.6C740.923 2193.6 741.936 2196.08 742.906 2199.13ZM454.934 2207.4C459.604 2212.7 463.725 2217.66 464.091 2218.42C466.876 2224.21 438.042 2239.74 430.95 2236.28C425.902 2233.81 421.047 2223.35 424.691 2222.79C425.758 2222.63 424.16 2219.49 421.139 2215.82C414.546 2207.82 415.439 2206.71 432.964 2201.11C447.325 2196.53 444.682 2195.77 454.934 2207.4ZM731.564 2208.45C730.719 2212.56 729.392 2214.9 728.615 2213.65C727.703 2212.18 727.791 2209.53 728.86 2206.17C731.366 2198.3 733.311 2199.94 731.564 2208.45ZM719.557 2208.34C720.038 2210.37 719.756 2212.03 718.933 2212.03C718.109 2212.03 717.434 2210.37 717.434 2208.34C717.434 2206.32 717.714 2204.66 718.058 2204.66C718.402 2204.66 719.076 2206.32 719.557 2208.34ZM690.75 2212.44C691.805 2214.18 694.702 2215.63 697.185 2215.66C701.387 2215.71 704.077 2219.8 702.544 2223.79C701.756 2225.84 684.08 2214.89 682.815 2211.57C681.477 2208.05 688.563 2208.83 690.75 2212.44ZM665.523 2214.11C669.27 2216.77 673.057 2219.58 673.938 2220.34C674.819 2221.11 671.182 2231.1 665.857 2242.54L656.176 2263.35L652.6 2256.02C650.122 2250.94 648.573 2249.87 647.551 2252.53C646.529 2255.19 647.799 2260.03 651.685 2268.29C663.119 2292.6 669.424 2309.25 668.802 2313.48C668.449 2315.87 670.535 2320.56 673.436 2323.89C679.313 2330.65 685.911 2347.01 684.375 2351.02C681.345 2358.91 658.176 2330.05 659.061 2319.49C659.255 2317.17 658.498 2315.27 657.376 2315.27C654.927 2315.27 632.521 2260.79 632.544 2254.89C632.553 2252.61 636.733 2241.21 641.834 2229.54C651.908 2206.52 653.445 2205.52 665.523 2214.11ZM685.512 2230.12C685.948 2231.96 687.578 2232.59 689.134 2231.53C692.173 2229.46 693.137 2236.13 690.193 2238.87C689.22 2239.78 688.913 2241.88 689.51 2243.54C690.106 2245.21 691.348 2244.6 692.269 2242.2C694.108 2237.41 700.453 2236.18 700.453 2240.61C700.453 2242.14 697.553 2251.5 694.01 2261.41C687.956 2278.35 687.359 2279.15 684.107 2274.61C678.185 2266.35 678.263 2274.63 684.24 2288.82C703.545 2334.65 715.341 2361.97 717.635 2366.18C719.081 2368.83 720.264 2372.42 720.264 2374.15C720.264 2376.92 718.112 2375.67 708.943 2367.59C707.776 2366.56 706.323 2366 705.714 2366.34C701.913 2368.49 661.538 2281.38 661.538 2271.03C661.538 2266.32 680.654 2226.78 682.933 2226.78C683.916 2226.78 685.077 2228.28 685.512 2230.12ZM729.717 2235.44C736.684 2240.44 739.965 2247.35 733.708 2243.84C731.373 2242.53 727.241 2240.58 724.525 2239.51C718.551 2237.14 715.246 2230.3 720.335 2230.83C722.243 2231.03 726.464 2233.1 729.717 2235.44ZM483.195 2239.92C487.842 2244.94 492.199 2250.5 492.879 2252.27C493.583 2254.11 489.757 2257.41 483.985 2259.95C478.412 2262.39 473.476 2263.41 473.015 2262.21C472.554 2261.01 471.341 2261.83 470.319 2264.04C468.969 2266.96 467.297 2266.71 464.175 2263.11C461.817 2260.39 459.887 2256.91 459.887 2255.38C459.887 2249.19 454.505 2253.09 453.836 2259.77C453.123 2266.87 453.061 2266.87 447.744 2259.81C439.494 2248.85 439.183 2246.25 445.776 2243.35C450.146 2241.43 452.073 2242.07 452.964 2245.74C453.938 2249.74 454.187 2249.55 454.205 2244.8C454.221 2240.54 456.498 2237.67 462.246 2234.66C472.81 2229.14 473.352 2229.27 483.195 2239.92ZM749.981 2246.02C752.705 2248.13 754.098 2250.64 753.076 2251.6C750.261 2254.26 738.66 2248.94 738.66 2244.99C738.66 2240.62 743.571 2241.07 749.981 2246.02ZM710.359 2242.9C710.359 2243.91 709.763 2248.82 709.034 2253.81C708.082 2260.34 708.268 2264.81 709.696 2269.72C710.79 2273.48 711.706 2279.04 711.734 2282.09C711.789 2288.33 726.542 2328.47 740.615 2360.67C745.767 2372.45 749.981 2383.87 749.981 2386.03C749.981 2388.64 747.474 2389.12 742.552 2387.45C734.339 2384.67 724.577 2370.21 723.471 2359.18C723.082 2355.31 721.952 2352.14 720.96 2352.14C719.063 2352.14 706.757 2326.89 697.011 2303C693.348 2294.02 691.897 2288.21 693.024 2287.02C693.996 2286 694.801 2283.22 694.811 2280.86C694.821 2278.49 698.323 2268.57 702.594 2258.81C706.865 2249.05 710.359 2241.89 710.359 2242.9ZM719.19 2249.45C722.681 2252.81 722.851 2253.75 720.893 2258.85C719.037 2263.69 719.003 2265.42 720.655 2270.54C722.874 2277.42 722.309 2289.46 719.768 2289.46C717.496 2289.46 712.9 2275.22 713.862 2271.17C714.28 2269.41 714 2267.41 713.24 2266.73C712.478 2266.05 711.679 2261.41 711.461 2256.43C711.005 2245.96 713.361 2243.84 719.19 2249.45ZM730.129 2256.13C731.274 2258.02 731.843 2260.52 731.393 2261.69C730.277 2264.6 725.925 2259.97 725.925 2255.88C725.925 2251.68 727.483 2251.77 730.129 2256.13ZM600.148 2256.89C600.242 2259.59 600.188 2263.47 600.031 2265.49C599.874 2267.52 600.225 2267.94 600.811 2266.41C601.395 2264.88 603.041 2266.38 604.466 2269.75C607.183 2276.15 608.081 2284.17 605.642 2280.24C604.863 2278.99 604.227 2280.55 604.227 2283.71C604.227 2287 603.017 2289.46 601.396 2289.46C599.676 2289.46 598.566 2287 598.566 2283.19C598.566 2278.32 598.188 2277.91 596.868 2281.35C594.444 2287.66 592.45 2286.82 593.468 2279.9C594.045 2275.98 593.388 2273.38 591.496 2272.1C589.937 2271.04 588.661 2268.7 588.661 2266.91C588.661 2262.12 590.461 2262.92 593.922 2269.24C596.838 2274.56 596.97 2274.36 596.712 2265.03C596.565 2259.64 597.239 2254.5 598.212 2253.61C599.185 2252.71 600.056 2254.19 600.148 2256.89ZM735.83 2259.96C737.105 2262.11 737.281 2263.56 736.268 2263.6C735.341 2263.62 734.189 2261.99 733.708 2259.96C732.622 2255.38 733.112 2255.38 735.83 2259.96ZM780.768 2262.41C781.746 2263.44 782.238 2265.58 781.863 2267.16C780.969 2270.93 774.038 2267.44 774.038 2263.22C774.038 2259.76 777.81 2259.31 780.768 2262.41ZM729.193 2268.95C730.812 2272.14 731.203 2274.89 730.255 2276.42C729.43 2277.75 728.755 2277.08 728.755 2274.93C728.755 2272.78 727.8 2271.02 726.632 2271.02C725.465 2271.02 724.509 2269.37 724.509 2267.34C724.509 2262.33 726.126 2262.88 729.193 2268.95ZM515.524 2272.47C520.051 2277.03 523.6 2282.31 523.411 2284.19C522.968 2288.59 491.079 2303.76 490.186 2299.99C489.816 2298.43 488.643 2298.03 487.579 2299.09C486.515 2300.15 485.224 2299.25 484.711 2297.09C484.197 2294.92 482.364 2293.15 480.637 2293.15C476.684 2293.15 470.567 2282.28 472.169 2278.11C473.357 2275.01 500.025 2263.41 504.806 2263.91C506.175 2264.05 510.997 2267.91 515.524 2272.47ZM757.614 2280.65C757.17 2287.03 757.798 2292.1 759.476 2295.7C761.684 2300.43 761.704 2300.88 759.636 2299.2C758.332 2298.14 756.513 2299.63 755.596 2302.51C754.344 2306.44 753.239 2306.78 751.157 2303.88C749.134 2301.05 747.795 2301.29 746.2 2304.74C744.393 2308.64 743.708 2308.37 742.243 2303.15C741.268 2299.68 738.744 2296.83 736.634 2296.83C733.224 2296.83 733.034 2296.22 734.92 2291.3C736.088 2288.26 738.68 2285.77 740.683 2285.77C743.426 2285.77 744.321 2283.89 744.321 2278.09C744.321 2269.58 747.755 2270.15 747.99 2278.7C748.071 2281.58 748.232 2286.84 748.351 2290.38C748.473 2294.06 749.719 2296.83 751.245 2296.83C754.618 2296.83 756.356 2286.26 753.459 2283.36C751.814 2281.71 751.696 2280.05 752.949 2276.12C755.717 2267.43 758.356 2270 757.614 2280.65ZM741.491 2278.4C741.491 2280.43 740.816 2282.09 739.992 2282.09C739.168 2282.09 738.887 2280.43 739.368 2278.4C739.849 2276.37 740.523 2274.71 740.867 2274.71C741.21 2274.71 741.491 2276.37 741.491 2278.4ZM727.815 2280.87C728.983 2283.91 724.652 2296.88 722.521 2296.72C721.669 2296.65 722.151 2294.28 723.59 2291.43C725.03 2288.59 725.789 2284.49 725.275 2282.33C724.258 2278.05 726.283 2276.88 727.815 2280.87ZM762.717 2285.77C762.717 2287.8 762.08 2289.46 761.302 2289.46C760.524 2289.46 759.887 2287.8 759.887 2285.77C759.887 2283.75 760.524 2282.09 761.302 2282.09C762.08 2282.09 762.717 2283.75 762.717 2285.77ZM783.943 2289.68C783.943 2291.82 783.307 2292.56 782.528 2291.3C781.75 2290.05 781.113 2288.3 781.113 2287.4C781.113 2286.5 781.75 2285.77 782.528 2285.77C783.307 2285.77 783.943 2287.53 783.943 2289.68ZM613.425 2296.83C613.906 2298.86 613.662 2300.52 612.884 2300.52C612.106 2300.52 611.076 2298.86 610.594 2296.83C610.113 2294.81 610.357 2293.15 611.135 2293.15C611.913 2293.15 612.944 2294.81 613.425 2296.83ZM547.623 2303.29L556.821 2313.07L551.161 2317.57C548.047 2320.05 543.112 2322.21 540.194 2322.36C537.274 2322.52 534.887 2324.48 534.887 2326.73C534.887 2328.97 533.952 2329.87 532.81 2328.73C531.668 2327.59 530.356 2328.24 529.896 2330.18C529.436 2332.12 527.346 2333.57 525.252 2333.41C523.157 2333.26 522.235 2332.29 523.201 2331.27C524.428 2329.98 524.55 2327.43 523.604 2322.83C522.86 2319.2 522.654 2315.19 523.145 2313.91C523.636 2312.63 522.658 2311.58 520.972 2311.58C519.286 2311.58 517.906 2309.98 517.906 2308.02C517.906 2302.12 522.426 2297.69 530.642 2295.55C536.991 2293.89 540.119 2295.32 547.623 2303.29ZM739.149 2309.38L741.376 2318.24L737.217 2312.84C731.96 2306 730.603 2300.52 734.169 2300.52C735.682 2300.52 737.923 2304.51 739.149 2309.38ZM663.66 2307.9C664.936 2310.04 665.111 2311.49 664.098 2311.53C663.171 2311.56 662.019 2309.92 661.538 2307.9C660.452 2303.32 660.942 2303.32 663.66 2307.9ZM658 2307.9C658 2309.92 657.325 2311.58 656.502 2311.58C655.678 2311.58 655.396 2309.92 655.877 2307.9C656.359 2305.87 657.032 2304.21 657.376 2304.21C657.72 2304.21 658 2305.87 658 2307.9ZM510.83 2308.24C510.83 2310.08 510.155 2311.58 509.332 2311.58C508.508 2311.58 508.201 2313.13 508.65 2315.03C509.1 2316.92 511.757 2317.5 514.556 2316.32C519.409 2314.27 519.597 2314.58 518.601 2323.02C517.126 2335.49 516.504 2336.41 514.466 2329.15C513.479 2325.63 512.318 2323.68 511.883 2324.82C511.449 2325.95 509.105 2324.2 506.676 2320.92C504.245 2317.65 501.683 2315.89 500.981 2317.02C500.28 2318.15 499.317 2317.44 498.842 2315.44C498.071 2312.18 499.616 2310.68 508.354 2306.17C509.715 2305.47 510.83 2306.4 510.83 2308.24ZM599.483 2311.56C603.119 2315.38 605.152 2322.69 602.541 2322.55C601.522 2322.49 598.142 2319.31 595.028 2315.47C590.161 2309.47 589.863 2308.48 592.906 2308.43C594.852 2308.39 597.811 2309.8 599.483 2311.56ZM614.132 2324.88C616.078 2327.98 616.504 2329.58 615.078 2328.43C613.653 2327.28 610.945 2326.33 609.063 2326.33C607.181 2326.33 605.642 2324.67 605.642 2322.64C605.642 2317.22 610.075 2318.39 614.132 2324.88ZM737.625 2330.02C738.958 2334.07 739.517 2337.39 738.866 2337.39C738.216 2337.39 736.531 2334.07 735.123 2330.02C733.715 2325.96 733.156 2322.64 733.882 2322.64C734.608 2322.64 736.292 2325.96 737.625 2330.02ZM792.322 2335.86C792.254 2340.15 791.919 2341.02 791.467 2338.09C791.059 2335.42 791.109 2332.24 791.579 2331.02C792.049 2329.79 792.383 2331.97 792.322 2335.86ZM754.58 2343.87C757.709 2345.69 757.641 2348.17 754.171 2359.03C751.879 2366.2 751.003 2366.94 749.265 2363.18C748.102 2360.67 747.151 2356.51 747.151 2353.94C747.151 2351.37 746.105 2349.51 744.827 2349.79C743.548 2350.07 742.272 2348.61 741.989 2346.55C741.479 2342.84 749.753 2341.08 754.58 2343.87ZM572.445 2345.01C574.055 2351.8 572.255 2352.48 567.999 2346.7L563.896 2341.12L567.704 2341.1C569.799 2341.09 571.933 2342.85 572.445 2345.01ZM533.755 2349.19C532.435 2352.63 531.679 2352.63 530.359 2349.19C529.038 2345.75 529.415 2344.77 532.057 2344.77C534.699 2344.77 535.075 2345.75 533.755 2349.19ZM566.019 2352.14C567.237 2354.19 567.437 2355.74 566.489 2355.77C565.579 2355.8 563.821 2356.84 562.58 2358.08C560.93 2359.73 560.561 2358.75 561.202 2354.39C562.208 2347.56 563.063 2347.16 566.019 2352.14ZM602.21 2365.29C602.32 2378.49 600.171 2381.9 597.342 2373.02C596.146 2369.26 596.526 2366.24 598.937 2360.36L602.104 2352.63L602.21 2365.29ZM785.284 2362.83C786.38 2368.18 786.208 2370.36 784.552 2372.01C783.304 2373.26 782.752 2372.62 783.251 2370.51C783.731 2368.49 783.127 2365.84 781.91 2364.63C779.117 2361.83 779.02 2355.83 781.771 2355.83C782.91 2355.83 784.491 2358.98 785.284 2362.83ZM758.845 2358.03C759.946 2360.9 758.517 2370.58 756.993 2370.58C756.346 2370.58 755.913 2367.26 756.031 2363.2C756.244 2355.8 757.269 2353.92 758.845 2358.03ZM658 2359.73C658 2361.88 657.363 2362.61 656.585 2361.36C655.807 2360.11 655.17 2358.35 655.17 2357.45C655.17 2356.56 655.807 2355.83 656.585 2355.83C657.363 2355.83 658 2357.59 658 2359.73ZM791.49 2365.66C792.009 2367.01 792.434 2369.83 792.434 2371.93C792.434 2374.24 791.775 2374.02 790.76 2371.38C789.839 2368.98 789.414 2366.16 789.816 2365.11C790.218 2364.06 790.972 2364.31 791.49 2365.66ZM584.009 2376.59C585.682 2385.97 585.655 2386.06 582.982 2379.75C581.472 2376.19 580.578 2371.84 580.995 2370.08C582.042 2365.67 582.079 2365.75 584.009 2376.59ZM760.594 2380.2C762.929 2382.88 766.432 2384.31 768.377 2383.36C773.489 2380.89 776.544 2386.67 774.127 2394.26C771.684 2401.93 766.692 2401.64 763.054 2393.62C761.443 2390.07 758.959 2385.29 757.531 2382.99C753.59 2376.65 755.779 2374.65 760.594 2380.2ZM634.613 2377.79C635.073 2379.73 636.385 2380.38 637.527 2379.24C638.669 2378.1 639.604 2378.98 639.604 2381.2C639.604 2383.42 638.012 2384.9 636.066 2384.48C634.12 2384.06 632.528 2381.59 632.528 2378.99C632.528 2373.4 633.445 2372.87 634.613 2377.79ZM623.135 2379.79C623.582 2382.84 623.332 2385.33 622.579 2385.33C621.825 2385.33 621.208 2382.84 621.208 2379.79C621.208 2376.75 621.458 2374.26 621.764 2374.26C622.07 2374.26 622.686 2376.75 623.135 2379.79ZM570.972 2377.95C571.453 2379.98 570.853 2381.64 569.64 2381.64C568.428 2381.64 567.434 2379.98 567.434 2377.95C567.434 2375.92 568.033 2374.26 568.766 2374.26C569.499 2374.26 570.491 2375.92 570.972 2377.95ZM793.849 2383.05C793.849 2385.86 795.077 2388.99 796.577 2390.01C798.312 2391.19 799.125 2394.37 798.809 2398.74C798.534 2402.51 798.253 2406.43 798.182 2407.45C798.111 2408.46 797.228 2405.14 796.222 2400.07C795.215 2395 793.331 2391.08 792.035 2391.35C790.153 2391.75 789.966 2390.45 791.107 2384.9C792.793 2376.68 793.849 2375.97 793.849 2383.05ZM579.593 2385.87C580.875 2391.28 577.657 2392.27 575.071 2387.26C572.502 2382.29 572.527 2382.09 575.678 2382.66C577.488 2382.98 579.25 2384.43 579.593 2385.87ZM706.606 2387.84C707.135 2389.22 710.585 2391.58 714.27 2393.09C729.328 2399.24 747.387 2410.28 748.917 2414.26C750.89 2419.4 750.191 2419.45 739.368 2414.89C723.767 2408.33 699.065 2391.88 699.847 2388.58C700.76 2384.74 705.226 2384.24 706.606 2387.84ZM631.113 2392.7C632.928 2395.75 632.877 2396.28 630.76 2396.33C629.397 2396.36 628.283 2394.73 628.283 2392.7C628.283 2388.2 628.443 2388.2 631.113 2392.7ZM778.841 2398.54C779.368 2402.13 779.053 2403.82 778.018 2402.92C775.903 2401.08 774.738 2392.7 776.599 2392.7C777.359 2392.7 778.367 2395.33 778.841 2398.54ZM626.21 2396.59C627.31 2401.23 624.237 2408.08 621.915 2406.16C621.137 2405.52 620.5 2402.66 620.5 2399.82C620.5 2393.29 624.844 2390.84 626.21 2396.59ZM637.481 2400.07C637.962 2402.1 637.362 2403.76 636.15 2403.76C634.937 2403.76 633.944 2402.1 633.944 2400.07C633.944 2398.05 634.542 2396.39 635.275 2396.39C636.008 2396.39 637 2398.05 637.481 2400.07ZM616.255 2411.14C616.736 2413.16 616.493 2414.82 615.714 2414.82C614.936 2414.82 613.906 2413.16 613.425 2411.14C612.944 2409.11 613.187 2407.45 613.965 2407.45C614.744 2407.45 615.774 2409.11 616.255 2411.14ZM670.248 2416.82C671.394 2424.6 669.481 2428.81 667.851 2422.09C666.119 2414.95 666.152 2411.14 667.95 2411.14C668.753 2411.14 669.786 2413.69 670.248 2416.82ZM762.124 2418.2C763.556 2421.91 762.51 2425.13 760.241 2424C758.878 2423.32 756.967 2422.64 755.995 2422.48C755.022 2422.32 754.226 2420.71 754.226 2418.9C754.226 2415.7 760.931 2415.11 762.124 2418.2ZM654.109 2419.95C655.471 2422.65 656.585 2425.77 656.585 2426.89C656.585 2430.76 648.985 2423.63 648.423 2419.23C647.676 2413.39 651.002 2413.81 654.109 2419.95ZM766.962 2425.88C766.962 2427.91 766.326 2429.57 765.547 2429.57C764.769 2429.57 764.132 2427.91 764.132 2425.88C764.132 2423.86 764.769 2422.2 765.547 2422.2C766.326 2422.2 766.962 2423.86 766.962 2425.88ZM640.116 2431.41C640.985 2437.31 639.794 2438.32 636.191 2434.71C634.964 2433.49 634.311 2431 634.743 2429.18C635.976 2423.98 639.219 2425.33 640.116 2431.41ZM791.707 2432.59C792.536 2434.75 796.691 2436.19 803.401 2436.64C806.169 2436.82 808 2438.85 808 2441.73C808 2445.04 806.463 2446.06 803.047 2445.02C800.323 2444.19 798.09 2442.45 798.086 2441.15C798.082 2439.85 795.165 2438.57 791.608 2438.32C788.049 2438.05 784.463 2436.09 783.639 2433.94C782.585 2431.19 783.45 2430.13 786.559 2430.36C788.988 2430.54 791.305 2431.54 791.707 2432.59ZM720.972 2436.94C721.453 2438.97 721.171 2440.63 720.348 2440.63C719.524 2440.63 718.849 2438.97 718.849 2436.94C718.849 2434.92 719.129 2433.26 719.473 2433.26C719.817 2433.26 720.491 2434.92 720.972 2436.94ZM662.623 2437.4C661.662 2439.92 660.52 2441.06 660.086 2439.92C659.65 2438.78 660.436 2436.72 661.831 2435.34C663.847 2433.34 664.01 2433.76 662.623 2437.4ZM764.132 2464.71C764.132 2470.68 761.92 2472.04 760.686 2466.83C760.255 2465.01 760.855 2462.58 762.018 2461.41C763.301 2460.13 764.132 2461.42 764.132 2464.71ZM757.569 2471.97C757.12 2475.01 755.886 2477.5 754.826 2477.5C753.696 2477.5 753.236 2475.22 753.714 2471.97C754.163 2468.93 755.397 2466.44 756.457 2466.44C757.587 2466.44 758.047 2468.72 757.569 2471.97ZM769.792 2503.31C769.792 2505.34 769.194 2507 768.461 2507C767.728 2507 766.736 2505.34 766.255 2503.31C765.774 2501.28 766.374 2499.63 767.586 2499.63C768.799 2499.63 769.792 2501.28 769.792 2503.31Z" fill="black"/>
</svg>
